<svg id="Слой_1" xmlns="http://www.w3.org/2000/svg" viewBox="0 0 200 100"><style>.st0{fill:#ffbc00}.st1{fill:#292929}.st2{fill:url(#SVGID_1_)}.st3{fill:url(#SVGID_2_)}.st4{fill:url(#SVGID_3_)}</style><path class="st0" d="M137.1 90.6V54.8h7.4v13.6c.9-.9 2-1.6 3.1-2.2 1.2-.6 2.5-.8 4.1-.8 1.3 0 2.5.3 3.6.8 1.1.6 2 1.4 2.8 2.5.8 1.1 1.4 2.4 1.9 4s.7 3.3.7 5.3c0 1.9-.3 3.6-.8 5.2s-1.2 3-2.2 4.1c-.9 1.2-2 2.1-3.3 2.7-1.3.7-2.7 1-4.3 1-.7 0-1.4-.1-2-.2-.6-.1-1.1-.3-1.6-.6s-.9-.6-1.3-.9l-1.2-1.2-.3 1.2c-.1.5-.3.9-.6 1.1-.3.2-.7.3-1.2.3h-4.8zM149.2 71c-.5 0-1 .1-1.5.2-.4.1-.8.3-1.2.4-.4.2-.7.4-1 .7l-1 1v10.5c.6.6 1.2 1.1 1.8 1.3.7.2 1.3.4 2.1.4.7 0 1.3-.1 1.9-.4.6-.3 1.1-.7 1.5-1.3.4-.6.8-1.4 1-2.3.2-1 .4-2.1.4-3.5 0-1.3-.1-2.4-.3-3.3-.2-.9-.5-1.6-.8-2.2-.3-.6-.8-.9-1.2-1.2-.6-.2-1.1-.3-1.7-.3zm24.2-12c0 .6-.1 1.1-.4 1.7-.2.5-.6 1-1 1.4-.4.4-.9.7-1.4.9-.6.2-1.1.3-1.8.3-.6 0-1.2-.1-1.7-.3-.5-.2-1-.5-1.4-.9-.4-.4-.7-.8-1-1.4-.2-.5-.3-1.1-.3-1.7 0-.6.1-1.2.3-1.7.2-.5.5-1 1-1.4.4-.4.9-.7 1.4-.9.5-.2 1.1-.3 1.7-.3.6 0 1.2.1 1.8.3.6.2 1 .5 1.4.9.4.4.7.9 1 1.4.2.5.4 1.1.4 1.7zm-.9 6.8v24.8h-7.4V65.8h7.4zm24.5 3c0 .5-.1 1-.3 1.5-.2.5-.4.9-.7 1.2l-10.4 13.7h11.1v5.5h-19.6v-3c0-.3.1-.7.3-1.1.2-.5.4-.9.7-1.3l10.5-13.9h-10.7v-5.5H197v2.9z"/><path class="st1" d="M114 45.6v-36h4.4v14.8c1-1.2 2.2-2.1 3.5-2.9 1.3-.7 2.8-1.1 4.6-1.1 1.4 0 2.7.3 3.9.8 1.2.5 2.1 1.3 3 2.4.8 1.1 1.4 2.4 1.9 4 .4 1.6.7 3.4.7 5.4 0 1.8-.2 3.5-.7 5.1-.5 1.6-1.2 2.9-2.1 4.1s-2 2.1-3.4 2.7c-1.3.7-2.8 1-4.5 1-1.6 0-3-.3-4.1-.9-1.1-.6-2.1-1.5-2.9-2.6l-.2 2.2c-.1.6-.5.9-1.1.9h-3zm11.1-21.7c-1.4 0-2.7.3-3.7 1-1.1.7-2 1.6-2.9 2.8v12c.8 1.1 1.6 1.8 2.6 2.3 1 .4 2 .7 3.2.7 2.3 0 4.1-.8 5.3-2.5 1.2-1.6 1.9-4 1.9-7 0-1.6-.1-3-.4-4.2-.3-1.2-.7-2.1-1.2-2.8-.5-.7-1.2-1.3-2-1.6-.9-.5-1.8-.7-2.8-.7zm25.9-3.5c1.5 0 2.9.2 4.1.7 1.3.5 2.3 1.2 3.3 2.2.9.9 1.6 2.1 2.1 3.5s.8 2.9.8 4.7c0 .7-.1 1.1-.2 1.4-.1.2-.4.3-.8.3h-16.5c0 1.6.2 2.9.6 4.1.4 1.2.9 2.1 1.6 2.9.7.8 1.5 1.4 2.4 1.7.9.4 2 .6 3.2.6 1.1 0 2-.1 2.8-.4.8-.3 1.5-.5 2-.8.6-.3 1-.6 1.4-.8.4-.3.7-.4 1-.4.4 0 .6.1.8.4l1.2 1.6c-.5.7-1.2 1.2-1.9 1.7s-1.6.9-2.4 1.2c-.9.3-1.7.5-2.7.7-.9.2-1.8.2-2.7.2-1.7 0-3.3-.3-4.7-.9-1.4-.6-2.7-1.4-3.7-2.5-1.1-1.1-1.9-2.5-2.5-4.1-.6-1.6-.9-3.5-.9-5.7 0-1.7.3-3.3.8-4.8s1.3-2.8 2.3-3.9c1-1.1 2.2-2 3.6-2.6 1.6-.6 3.2-1 5-1zm.1 3.2c-2.1 0-3.8.6-5 1.8-1.2 1.2-2 2.9-2.2 5h13.5c0-1-.1-1.9-.4-2.8-.3-.8-.7-1.6-1.2-2.2-.5-.6-1.2-1.1-2-1.4-.8-.2-1.7-.4-2.7-.4zm20.6-14v36h-4.3v-36h4.3z"/><circle class="st0" cx="119.9" cy="84.1" r="7.2"/><linearGradient id="SVGID_1_" gradientUnits="userSpaceOnUse" x1="9.93" y1="74.11" x2="77.154" y2="74.11"><stop offset="0" stop-color="#eab531"/><stop offset="1" stop-color="#f5d42f"/></linearGradient><path class="st2" d="M77.2 68.9L45.8 100H9.9s50.4-50.7 51.6-51.8c8.4 3.9 14.7 11.6 15.7 20.7z"/><linearGradient id="SVGID_2_" gradientUnits="userSpaceOnUse" x1=".392" y1="46.744" x2="68.07" y2="46.744"><stop offset="0" stop-color="#eab531"/><stop offset="1" stop-color="#f5d42f"/></linearGradient><path class="st3" d="M68.1 23L.4 90.7V54.8s51.3-51.4 52-52c7.5 3 14.8 11.6 15.7 20.2z"/><linearGradient id="SVGID_3_" gradientUnits="userSpaceOnUse" x1=".392" y1="17.788" x2="35.366" y2="17.788"><stop offset="0" stop-color="#eab531"/><stop offset="1" stop-color="#f5d42f"/></linearGradient><path class="st4" d="M35.4.3l-35 35V.3z"/></svg>