<svg id="Слой_1" xmlns="http://www.w3.org/2000/svg" viewBox="0 0 22 22"><style>.st0{fill:none}.st1{fill:url(#SVGID_1_)}</style><path class="st0" d="M-9-9h40v40H-9z"/><linearGradient id="SVGID_1_" gradientUnits="userSpaceOnUse" x1="1" y1="11.055" x2="21" y2="11.055"><stop offset="0" stop-color="#eab531"/><stop offset="1" stop-color="#f5d42f"/></linearGradient><path class="st1" d="M20.8 9.3c.4-.4.2-1.1-.4-1.2l-5.9-.5c-.3 0-.5-.2-.6-.4l-2.3-5.7c-.2-.6-1-.6-1.3 0L8.1 7.2c-.1.2-.3.4-.6.4l-5.9.5c-.6.1-.8.8-.4 1.2l4.5 4.1c.2.2.3.4.2.7l-1.7 6.1c-.2.6.5 1.1 1 .8l5.5-3.2c.2-.1.5-.1.7 0l5.5 3.2c.5.3 1.2-.2 1-.8l-1.7-6.1c-.1-.2 0-.5.2-.7l4.4-4.1z"/></svg>