<svg xmlns="http://www.w3.org/2000/svg" viewBox="0 0 20.17 20.17"><defs><style>.cls-1{fill:#fff}</style></defs><title>fb</title><g id="Слой_2" data-name="Слой 2"><path class="cls-1" d="M20.17 10.11V19a1.12 1.12 0 0 1-.39.93.86.86 0 0 1-.6.23h-4c-.41 0-.43 0-.43-.46v-6.98c0-.61 0-.63.65-.63h2c.4 0 .39 0 .41-.41 0-.69.08-1.37.1-2.06 0-.4 0-.41-.4-.41h-2.19c-.53 0-.54 0-.54-.51V6.91a1.05 1.05 0 0 1 1.17-1.18h1.4c.47 0 .44 0 .46-.42 0-.59.08-1.19.1-1.78 0-.41 0-.46-.45-.46a20.28 20.28 0 0 0-2.29 0 3.47 3.47 0 0 0-3.39 3.52v2.18c0 .42 0 .43-.45.44H10c-.23 0-.34.08-.34.32v2.24c0 .24.1.33.33.33h1.23c.56 0 .56 0 .56.55v7.04c0 .47 0 .48-.46.48H1.15A1.18 1.18 0 0 1 0 19V1.54a4.2 4.2 0 0 1 0-.44A1.13 1.13 0 0 1 1.09 0a3.24 3.24 0 0 1 .39 0h17.61a1 1 0 0 1 1.08 1.1v9.01z" id="Layer_1" data-name="Layer 1"/></g></svg>