<svg xmlns="http://www.w3.org/2000/svg" viewBox="0 0 24 22.13"><defs><style>.cls-1{fill:#fff}</style></defs><title>ic_msg</title><g id="Layer_2" data-name="Layer 2"><path class="cls-1" d="M9.68 15H8.37a4.71 4.71 0 0 1-.71.64q-.55.43-1.29.93a12.25 12.25 0 0 1-1.62.9 5.62 5.62 0 0 1-1.54.5h-.39l-.11-.06-.08-.08a.46.46 0 0 1-.06-.11.67.67 0 0 1 0-.12.66.66 0 0 1 0-.13.47.47 0 0 1 0-.21 7.64 7.64 0 0 0 1.25-3.36A6.5 6.5 0 0 1 1 11.11a7.82 7.82 0 0 1-1-3.8 5.87 5.87 0 0 1 1.31-3.68A8.85 8.85 0 0 1 4.88 1 12.27 12.27 0 0 1 9.8 0a12.56 12.56 0 0 1 2 .15 13 13 0 0 1 1.83.42 10.59 10.59 0 0 1 1.65.67 9.23 9.23 0 0 1 1.43.89 8.57 8.57 0 0 1 1.17 1.08 6.72 6.72 0 0 1 .89 1.24 6.27 6.27 0 0 1 .56 1.38 5.56 5.56 0 0 1 .2 1.48 6.61 6.61 0 0 1-1.23 4A8.06 8.06 0 0 1 14.84 14 12.09 12.09 0 0 1 10 15zm-1.1-1.55a8.85 8.85 0 0 0 1.42.05 10.51 10.51 0 0 0 3.18-.5 8.17 8.17 0 0 0 2.54-1.28 5.93 5.93 0 0 0 1.66-2A5.24 5.24 0 0 0 18 7.31a4.53 4.53 0 0 0-1.09-2.93 7.34 7.34 0 0 0-3-2.11A10.8 10.8 0 0 0 9.8 1.5a11 11 0 0 0-4.16.77 7.51 7.51 0 0 0-3 2.11A4.48 4.48 0 0 0 1.5 7.31a6.36 6.36 0 0 0 .76 3 5.06 5.06 0 0 0 2.24 2.21l.82.42-.07.91V14q0 .14-.14.62a10.29 10.29 0 0 1-.35 1.11A11.33 11.33 0 0 0 6 14.89a5.92 5.92 0 0 0 .82-.74l1-.8zm12.16 4.92a4.64 4.64 0 0 0 .08.81q.08.46.2.88t.26.8a3.31 3.31 0 0 0 .26.56.42.42 0 0 1 0 .19.48.48 0 0 1-.49.49H21a5.56 5.56 0 0 1-2.34-1.1 12.54 12.54 0 0 1-1.76-1.52 8.3 8.3 0 0 1-.91 0h-.45a11.63 11.63 0 0 1-1.76-.13 9.14 9.14 0 0 1-1.59-.35 8.81 8.81 0 0 1-1.41-.62 8.31 8.31 0 0 1-1.22-.82 7.15 7.15 0 0 1-1-1h2.13A7.63 7.63 0 0 0 15.54 18h1.15l.8-.12v.09a2.82 2.82 0 0 0 .22.3l.36.42a6.47 6.47 0 0 0 .56.54q.35.3.77.61a17 17 0 0 1-.19-2.41l.73-.35a7.33 7.33 0 0 0 1.14-.74 3.78 3.78 0 0 0 .79-.84 3.29 3.29 0 0 0 .45-1 4.4 4.4 0 0 0 .14-1.14 3.93 3.93 0 0 0-.35-1.75 3.82 3.82 0 0 0-1.29-1.37 8.06 8.06 0 0 0 .38-1.62 5.17 5.17 0 0 1 2.8 4.74 5.37 5.37 0 0 1-3.26 4.99z" id="Layer_1-2" data-name="Layer 1"/></g></svg>