<svg xmlns="http://www.w3.org/2000/svg" viewBox="0 0 24 24"><defs><style>.cls-1{fill:#fff}</style></defs><title>ic_info_active</title><g id="Layer_2" data-name="Layer 2"><path class="cls-1" d="M23.39 8.21a11.6 11.6 0 0 0-1.71-3.31 12.6 12.6 0 0 0-2.58-2.58A11.6 11.6 0 0 0 15.79.61a12.06 12.06 0 0 0-7.57 0A11.6 11.6 0 0 0 4.9 2.32 12.6 12.6 0 0 0 2.32 4.9 11.6 11.6 0 0 0 .61 8.21 12 12 0 0 0 0 12a11.77 11.77 0 0 0 .95 4.66 11.74 11.74 0 0 0 6.39 6.39 11.93 11.93 0 0 0 9.33 0 11.74 11.74 0 0 0 6.39-6.39A11.77 11.77 0 0 0 24 12a12 12 0 0 0-.61-3.79zM10.93 5.68a1.5 1.5 0 0 1 2.57 1.07 1.5 1.5 0 1 1-2.57-1.07zM14 18.53a.72.72 0 0 1-.53.22h-3a.75.75 0 0 1 0-1.5h.75v-6h-.72a.75.75 0 0 1 0-1.5H12a.76.76 0 0 1 .75.75v6.75h.75a.75.75 0 0 1 .5 1.28z" id="Layer_1-2" data-name="Layer 1"/></g></svg>