<svg xmlns="http://www.w3.org/2000/svg" viewBox="0 0 24 24"><defs><style>.cls-1{fill:#fff}</style></defs><title>ic_info</title><g id="Layer_2" data-name="Layer 2"><path class="cls-1" d="M19.1 2.32a12.6 12.6 0 0 1 2.58 2.58 11.6 11.6 0 0 1 1.71 3.32A12 12 0 0 1 24 12a11.77 11.77 0 0 1-.95 4.66 11.74 11.74 0 0 1-6.39 6.39 11.93 11.93 0 0 1-9.33 0 11.74 11.74 0 0 1-6.38-6.39A11.77 11.77 0 0 1 0 12a12 12 0 0 1 .61-3.79A11.6 11.6 0 0 1 2.32 4.9 12.6 12.6 0 0 1 4.9 2.32 11.6 11.6 0 0 1 8.21.61a12.06 12.06 0 0 1 7.57 0 11.6 11.6 0 0 1 3.32 1.71zm-3 19.37a10.45 10.45 0 0 0 3.35-2.25 10.69 10.69 0 0 0 2.24-3.36 10.41 10.41 0 0 0 0-8.16 10.32 10.32 0 0 0-5.59-5.59 10.41 10.41 0 0 0-8.16 0 10.32 10.32 0 0 0-5.61 5.59A10.26 10.26 0 0 0 1.5 12a10.56 10.56 0 0 0 .5 3.32 9.89 9.89 0 0 0 1.5 2.89 11.76 11.76 0 0 0 2.26 2.27A9.73 9.73 0 0 0 8.68 22a10.56 10.56 0 0 0 3.32.53 10.26 10.26 0 0 0 4.08-.84zM14 17.47a.75.75 0 0 1-.53 1.28h-3a.75.75 0 0 1 0-1.5h.75v-6h-.72a.75.75 0 0 1 0-1.5H12a.76.76 0 0 1 .75.75v6.75h.75a.72.72 0 0 1 .5.22zM10.5 6.75a1.5 1.5 0 1 1 2.57 1.07 1.5 1.5 0 0 1-2.57-1.07z" id="Layer_1-2" data-name="Layer 1"/></g></svg>