<svg xmlns="http://www.w3.org/2000/svg" viewBox="0 0 31.65 31.58"><defs><style>.cls-1{fill:#fff}</style></defs><title>ic_phone</title><g id="Layer_2" data-name="Layer 2"><path class="cls-1" d="M7.81.74q.25.34 2.1 3.1t2.16 3.25a2.47 2.47 0 0 1-.15 2.56l-1.57 2.81q.49.71 1.5 1.88t2.61 2.78a38.59 38.59 0 0 0 4.69 4.13q2.22-1.26 2.81-1.57l.39-.17.4-.14.39-.09a2.37 2.37 0 0 1 .37 0 1.89 1.89 0 0 1 .54.08 1.65 1.65 0 0 1 .45.2l.66.43 1.19.77 1.43.94 1.4.94 1.14.76a5.13 5.13 0 0 1 .59.42 1.74 1.74 0 0 1 .76 1.31 2.86 2.86 0 0 1-.55 1.87l-.37.49q-.28.37-.94 1.13T28.52 30a9 9 0 0 1-1.37 1.13 2.42 2.42 0 0 1-1.26.49 12.1 12.1 0 0 1-4.15-1 22.13 22.13 0 0 1-4.35-2.39q-2.14-1.5-4-3.05t-3.64-3.37Q7.93 20 6.39 18.17t-3-4A22.36 22.36 0 0 1 1 9.87a11.94 11.94 0 0 1-1-4.1 2.22 2.22 0 0 1 .46-1.3A9.58 9.58 0 0 1 1.58 3.1Q2.19 2.47 3 1.8T4.1.88l.53-.39.31-.17.3-.14.31-.09.31-.09a1.74 1.74 0 0 1 .34 0 1.83 1.83 0 0 1 1.61.74zm-2 1.33a20.23 20.23 0 0 0-2.49 2.06A5.87 5.87 0 0 0 2 5.8a9.93 9.93 0 0 0 .69 3 19.75 19.75 0 0 0 1.8 3.52 38.73 38.73 0 0 0 2.85 3.89q1.68 2 3.81 4.19a47 47 0 0 0 8.1 6.68 14.48 14.48 0 0 0 6.55 2.51 6.58 6.58 0 0 0 1.67-1.37 20.24 20.24 0 0 0 2.07-2.45.64.64 0 0 0 .15-.46q-3.73-2.56-6.17-4.1a.9.9 0 0 0-.25 0 1.8 1.8 0 0 0-.37.17q-.56.28-2.75 1.54l-1.15.67-1-.74a38.81 38.81 0 0 1-5-4.31 39.71 39.71 0 0 1-4.35-5l-.71-1 .62-1.08q1.27-2.19 1.54-2.75a1.16 1.16 0 0 0 .19-.65Q8.11 4.59 6.26 1.94H6.2a1.23 1.23 0 0 0-.43.13z" id="Layer_1-2" data-name="Layer 1"/></g></svg>