<svg xmlns="http://www.w3.org/2000/svg" viewBox="0 0 24.06 23.25"><defs><style>.cls-1{fill:#fff}</style></defs><title>ic_star_active</title><g id="Layer_2" data-name="Layer 2"><path class="cls-1" d="M12.28 0h.25l.22.08.25.17a1.15 1.15 0 0 1 .2.14l.18.18.15.19a.92.92 0 0 1 .07.24l2.72 5.65 6.26.91a1.72 1.72 0 0 1 .84.38 1.7 1.7 0 0 1 .54.77 1.55 1.55 0 0 1-.42 1.71L19 15l1 6.3a1.48 1.48 0 0 1-.11.91 1.72 1.72 0 0 1-1.61 1 1.94 1.94 0 0 1-.42 0 1.57 1.57 0 0 1-.42-.16L12 20.11 6.57 23a1.64 1.64 0 0 1-.82.21h-.53l-.16-.06-.17-.15-.15-.09a1.75 1.75 0 0 1-.6-.73A1.48 1.48 0 0 1 4 21.3L5.09 15 .52 10.38A1.55 1.55 0 0 1 .1 8.67a1.7 1.7 0 0 1 .54-.77 1.72 1.72 0 0 1 .84-.37l6.26-.91L10.46 1a1.62 1.62 0 0 1 .63-.7A1.76 1.76 0 0 1 12 0z" id="Layer_1-2" data-name="Layer 1"/></g></svg>