<svg xmlns="http://www.w3.org/2000/svg" viewBox="0 0 20.17 20.17"><defs><style>.cls-1{fill:#fff}</style></defs><title>inst</title><g id="Слой_2" data-name="Слой 2"><g id="Layer_1" data-name="Layer 1"><g id="instagramm"><path class="cls-1" d="M10.09 15.67a5.58 5.58 0 1 1 5.59-5.58 5.59 5.59 0 0 1-5.59 5.58m0-9.59a4 4 0 1 0 4 4 4 4 0 0 0-4-4"/><path class="cls-1" d="M14.55 20.17H5.63A5.63 5.63 0 0 1 0 14.55V5.63A5.63 5.63 0 0 1 5.63 0h8.92a5.63 5.63 0 0 1 5.63 5.63v8.92a5.63 5.63 0 0 1-5.63 5.63M5.63 1.58a4.05 4.05 0 0 0-4 4v8.92a4.05 4.05 0 0 0 4 4h8.92a4.05 4.05 0 0 0 4-4V5.63a4.05 4.05 0 0 0-4-4z"/><path class="cls-1" d="M16.76 4.61a1.05 1.05 0 1 0-1.05 1.05 1.05 1.05 0 0 0 1.05-1.05"/></g></g></g></svg>