<svg id="Layer_1" xmlns="http://www.w3.org/2000/svg" xmlns:xlink="http://www.w3.org/1999/xlink" viewBox="0 0 356 349.9"><style>.st0{fill:url(#SVGID_1_)}.st1{fill:#fff;enable-background:new}.st2{fill:url(#SVGID_2_)}.st3{fill:#ededed}.st4{fill:#fff}</style><title>logo</title><g id="Layer_2"><g id="Layer_1-2"><linearGradient id="SVGID_1_" gradientUnits="userSpaceOnUse" x1="101.527" y1="149.933" x2="264.527" y2="332.262" gradientTransform="matrix(1 0 0 -1 0 352)"><stop offset="0" stop-color="#ffc261"/><stop offset="1" stop-color="#e73045"/></linearGradient><path class="st0" d="M271.1 33.2c4-1.1 6.4-5.3 5.3-9.3-1.1-4-5.3-6.4-9.3-5.3-2.8.8-5 3.1-5.5 6l-16.5 1.5-1.1-12.8c-.1-1.1-1.1-1.9-2.2-1.8h-.2l-29.9 5.8-.1-2.1c4.2-.2 7.4-3.8 7.2-8-.2-4.2-3.8-7.4-8-7.2-3.9.2-6.9 3.3-7.2 7.2L94.6 40c-.1 0-.3.1-.4.2l-.2.1-.2.1c-.2.2-.4.4-.5.6 0 0 0 .1-.1.2 0 .1-.1.1-.1.2v.2c0 .1 0 .1-.1.2l10.4 154.7c-5.1 1.4-8.1 5.8-8.1 11.3 0 6.6 5.3 11.9 11.8 11.9 6 0 11.1-4.5 11.8-10.5l97.3-4.7c1.1-.1 1.9-1 1.9-2.1l-.2-5.2 40.1-4.5c1.1-.1 1.8-1.1 1.7-2.2l-1-11.4 18.1-3.6c1-.2 1.7-1.1 1.6-2.1l-7.3-140.2zm-30.9-17.3l1 10.6-29 2.7-.3-7.8 28.3-5.5zm1.3 14.5l13.2 145.3-37.1 7.5-5.3-150.1 29.2-2.7zm-33.3-.9l-73 6.7L208 22.1l.2 7.4zm-3.6-18.4c.7 1.3 1.8 2.4 3.1 3.1l.1 3.8-73.9 14.3 70.7-21.2zm3.7 22.4l5.3 150.5-95.3 19.2c-1.7-4.3-5.7-7.3-10.4-7.6L97.3 43.7l111-10.2zm5.7 159.9l-61.4 6.9 61.2-12.4.2 5.5zm-45.4 9.2l45.5-5.1.1 3-45.6 2.1zm87.3-13.9L218 193l-.2-5.8 37.3-7.5.8 9zm2.7-13.8L245.5 30.1l16.5-1.5c.8 2.3 2.7 4 5.1 4.7l7.5 138.5-16 3.1z"/><image width="356" height="190" xlink:href="991060AB.png" transform="translate(0 41)" overflow="visible" opacity=".5"/><path class="st1" d="M76.1 109H64V62H50l-.6 5.2c-1.6 13.3-3 22.6-4.3 28-1.2 5.4-3 9.1-5.4 11.3-2.4 2.2-5.6 3.3-9.6 3.2-2.2 0-4.1-.3-5.8-.9V99c1.5.5 2.9.8 4.3.8s2.5-.6 3.3-1.9c.8-1.3 1.6-3.6 2.3-7 .7-3.4 1.7-9 2.8-16.8 1.2-7.8 2.2-15.1 3-22.1h36v57zm47.2 0H90.5V52h32.8v9.9h-20.7v12.5h19.3v9.9h-19.3V99h20.7v10zm33.9 0h-12.1V62h-15.5V51.9h43V62h-15.5v47zm71 0h-12V84.3h-22.6V109h-12.1V52h12.1v22.3h22.6V51.9h12V109zm14.3-57.1h10.9v27.5l-.2 7.4-.4 8.4h.2l26.3-43.3h14.5v57H283V81.6c0-3.7.2-9.1.7-16.3h-.3L257.1 109h-14.5V51.9zm98.6 57.1h-32.8V52h32.8v9.9h-20.7v12.5h19.3v9.9h-19.3V99h20.7v10zM96.6 176.4H82.9l-20.7-28.9v28.9h-12v-57h12.1V147l20.4-27.6h12.9l-20.8 27.4 21.8 29.6zm52.2-57l-17.6 40.3c-2.2 5.1-4.3 8.7-6.2 10.9-1.9 2.2-4.2 3.9-6.9 4.9-2.7 1.1-5.9 1.6-9.7 1.6-3.3 0-6.3-.4-9.1-1.2v-10.4c2.3.9 5.1 1.4 8.5 1.4 2.2 0 3.9-.5 5.2-1.5 1.3-1 2.4-2.7 3.3-5.2l-19.7-40.9h12.8l14 31.8h.4l.7-1.9 11.8-29.8h12.5zm46.5 17.8c0 6.1-1.9 10.8-5.8 14.1-3.8 3.3-9.3 4.9-16.4 4.9H168v20.3h-12.1v-57h18.2c6.9 0 12.2 1.5 15.8 4.5 3.6 2.9 5.4 7.3 5.4 13.2zm-27.3 9h4c3.7 0 6.5-.7 8.3-2.2 1.8-1.5 2.8-3.6 2.8-6.4 0-2.8-.8-4.9-2.3-6.3s-4-2-7.3-2H168v16.9zm62.3-17.5c-4.5 0-8.1 1.7-10.6 5.1-2.5 3.4-3.7 8.2-3.7 14.3 0 12.7 4.8 19.1 14.3 19.1 4 0 8.9-1 14.5-3v10.1c-4.7 1.9-9.9 2.9-15.7 2.9-8.3 0-14.6-2.5-19-7.5s-6.6-12.3-6.6-21.7c0-5.9 1.1-11.1 3.2-15.6 2.2-4.5 5.3-7.9 9.3-10.3 4-2.4 8.8-3.6 14.2-3.6 5.5 0 11.1 1.3 16.7 4l-3.9 9.8c-2.1-1-4.3-1.9-6.4-2.7-2.1-.6-4.2-.9-6.3-.9zm65.7 29.9c0 5.9-2 10.4-5.9 13.4-3.9 3-9.8 4.5-17.5 4.5H257v-57h12.1v21.9h3.9c7.3 0 13 1.5 17 4.5s6 7.2 6 12.7zm-26.9 7.9h3.2c4 0 6.9-.7 8.7-2 1.8-1.3 2.8-3.3 2.8-5.9s-.9-4.5-2.7-5.7c-1.8-1.1-4.9-1.7-9.4-1.7h-2.6v15.3zm45.9 9.9h-12v-57h12v57z"/><linearGradient id="SVGID_2_" gradientUnits="userSpaceOnUse" x1="133.646" y1="121.213" x2="296.646" y2="303.553" gradientTransform="matrix(1 0 0 -1 0 352)"><stop offset="0" stop-color="#ffc261"/><stop offset="1" stop-color="#e73045"/></linearGradient><path class="st2" d="M258.6 174.9l-12-133.1-4 .3 12.1 133.5-37.1 7.5-4.9-138.6-4 .3 4.9 139-12.8 2.6.1 4.1 12.8-2.6.2 5.4-12.8 1.4.1 3.8h2.4l10.4-1.2v1.1h4l-.1-1.5 40.1-4.5c1.1-.1 1.9-1.1 1.8-2.2l-1-11.4-.2-3.9zM218 193l-.2-5.8 37.3-7.5.8 9L218 193z"/><path class="st3" d="M260.4 103.5l-1.6-17.7-3.5 5.8 1.6 17.4h.2zm6.5 71.4l-5-55.5h-4.1l5.1 56.3-3.5.7h7.6zM253.4 70.6V51.9h-1.7zm-28.1 95.8c-1.6-.5-2.9-1.3-4.1-2.3l.4 12.3c1.3.3 2.6.5 4 .7l-.3-10.7zm-5.2-33c1.1-1.4 2.4-2.5 3.9-3.3l-.4-10.8c-1.4.3-2.7.7-4 1.2l.5 12.9zm-.9-24.4h4l-2-57.1h-4z"/><path class="st4" d="M36.3 321.4c0 .7-.1 1.4-.3 2-.2.7-.5 1.3-.9 1.8-.4.6-1 1.1-1.6 1.5-.7.5-1.6.8-2.4.9v.2c.8.1 1.6.3 2.4.6.7.3 1.4.7 2 1.3.6.6 1 1.3 1.3 2 .3.9.5 1.8.5 2.8 0 1.3-.3 2.5-1 3.6-.7 1-1.5 1.9-2.6 2.5-1.1.7-2.4 1.2-3.7 1.5-1.4.3-2.8.5-4.2.5h-4.4c-.9 0-1.8-.1-2.8-.2-.8-.1-1.7-.2-2.5-.3v-26.8c.6-.1 1.2-.1 1.9-.2s1.4-.1 2.3-.2l2.5-.1h2.5c.8 0 1.7 0 2.7.1.9.1 1.7.2 2.5.4s1.5.5 2.3.8c.7.3 1.3.7 1.8 1.3.5.5 1 1.1 1.3 1.7.3.7.5 1.5.4 2.3zm-12.4 4.9H26l.6-.1c1-.3 1.9-.8 2.7-1.4.7-.6 1.2-1.4 1.1-2.4 0-.6-.1-1.2-.5-1.6-.3-.4-.7-.8-1.2-1-.5-.2-1.1-.4-1.7-.5-.6-.1-1.2-.1-1.9-.1H23c-.5 0-1 0-1.5.1v6.9l2.4.1zm1.9 11.6c.7 0 1.4-.1 2.1-.2.6-.1 1.2-.3 1.7-.6s.9-.7 1.2-1.1c.3-.5.5-1.1.5-1.7 0-.7-.1-1.4-.5-2-.4-.5-.8-.9-1.4-1.1-.6-.3-1.3-.4-1.9-.5-.7-.1-1.4-.1-2.1-.1h-3.5v7c.2.1.5.1.7.1l1.1.1h1.2l.9.1zM47 323.4v10.4c0 .5 0 1 .1 1.6.1.5.2 1 .4 1.4.2.4.5.8.9 1 .5.3 1 .4 1.5.4s1-.1 1.5-.3c.4-.2.8-.4 1.2-.8.3-.3.6-.6.8-1 .2-.3.4-.6.5-.9v-12h5v13c0 1 0 2 .2 3 .1.9.2 1.8.5 2.7H56l-1-2.9h-.4c-.7 1.1-1.6 2-2.7 2.6-1.1.6-2.4.9-3.6.9-.9 0-1.8-.1-2.6-.4-.8-.2-1.5-.7-2-1.3-.6-.7-1-1.5-1.2-2.4-.3-1.2-.5-2.5-.4-3.7v-11.4H47zm17.6 13.7c.4.3.8.5 1.3.7.4.2.8.4 1.2.5.4.1.9.2 1.3.3.5.1 1 .1 1.5.1.6.1 1.2-.1 1.8-.5.3-.3.5-.7.5-1.2 0-.4-.1-.8-.4-1.1-.3-.3-.6-.5-.9-.7-.4-.2-.8-.4-1.2-.5l-1.3-.4c-.5-.2-1.1-.4-1.6-.7-.6-.3-1.1-.7-1.5-1.1-.5-.5-.9-1.1-1.1-1.7-.3-.7-.5-1.5-.4-2.4 0-.9.2-1.7.5-2.5.3-.7.8-1.3 1.4-1.8.7-.5 1.4-.9 2.2-1.1.9-.3 1.9-.4 2.9-.4.5 0 1 0 1.5.1.5 0 .9.1 1.4.2.5.1.9.2 1.4.4.5.2.9.3 1.4.6l-1 3.8c-.7-.3-1.5-.5-2.2-.8-.8-.2-1.6-.3-2.4-.3-.6 0-1.1.1-1.6.4-.4.3-.6.8-.6 1.3 0 .4.1.8.4 1.1.3.3.6.5 1 .6.4.2.8.3 1.3.4.5.1.9.2 1.3.4.6.2 1.1.4 1.7.7.5.3 1 .6 1.4 1.1.4.4.8 1 1 1.5.3.7.4 1.4.4 2.1 0 .9-.1 1.7-.4 2.5-.3.8-.7 1.4-1.3 2-.7.6-1.4 1-2.3 1.3-1.1.3-2.2.5-3.3.5-1.3 0-2.6-.1-3.8-.5-1-.3-1.9-.6-2.8-1.1l1.3-3.8zm16-20.5c0-.4.1-.8.2-1.1.1-.3.4-.6.6-.9.3-.3.6-.4.9-.6.4-.1.8-.2 1.2-.2.4 0 .9.1 1.3.2s.7.3 1 .6c.3.2.5.6.6.9.2.4.2.7.2 1.1 0 .8-.3 1.6-.8 2.1-.6.5-1.4.8-2.3.7-.4 0-.8-.1-1.2-.2-.3-.1-.7-.3-.9-.5-.3-.2-.5-.6-.6-.9-.1-.4-.2-.8-.2-1.2zm.7 6.8h5v18.8h-5v-18.8zm23.5 18.8v-10.3c.1-1.2-.2-2.5-.8-3.5-.6-.7-1.5-1.1-2.4-1.1-.5 0-1 .1-1.4.3-.4.2-.8.4-1.2.8-.3.3-.6.6-.9 1-.2.3-.4.7-.6 1v11.7h-5v-18.7h3.9l.6 2.7h.5c.3-.4.6-.8 1-1.2.4-.4.9-.7 1.4-1 .5-.3 1-.5 1.6-.7.6-.2 1.2-.3 1.8-.3.9 0 1.7.1 2.6.4.8.2 1.5.7 2.1 1.3.6.7 1.1 1.5 1.4 2.4.4 1.3.5 2.6.5 3.9v11.3h-5.1zm24-1.2c-.8.6-1.7 1-2.7 1.3-1.2.3-2.5.5-3.7.5-1.2 0-2.4-.2-3.6-.5-1-.3-1.9-.9-2.7-1.6-.9-.9-1.6-2.1-2-3.3-.4-1.4-.6-2.9-.6-4.4 0-1.5.2-2.9.7-4.3.4-1.2 1-2.2 1.8-3.2.7-.8 1.7-1.5 2.7-1.9 1.1-.4 2.3-.6 3.5-.6 1.1 0 2.1.2 3.1.5.9.3 1.6.8 2.3 1.5.6.7 1.1 1.5 1.4 2.4.3 1 .5 2.1.5 3.2 0 .6 0 1.2-.1 1.9 0 .6-.1 1.2-.3 1.7h-10.4c0 .6.1 1.3.2 1.9.1.6.4 1.1.7 1.5.3.5.8.8 1.4 1 .6.2 1.3.3 2 .3.8 0 1.6-.1 2.4-.4.6-.2 1.2-.6 1.8-.9l1.6 3.4zm-6.9-14.1c-.6 0-1.1.1-1.6.4-.4.2-.8.6-1 1-.3.4-.4.9-.6 1.4-.1.5-.2 1-.2 1.6h6.2c0-.4.1-.8.1-1.1 0-.8-.3-1.6-.8-2.3-.5-.8-1.2-1.1-2.1-1zm11.1 10.2c.4.3.8.5 1.3.7.4.2.8.4 1.2.5.4.1.9.2 1.3.3.5.1 1 .1 1.5.1.6.1 1.2-.1 1.8-.5.3-.3.5-.7.5-1.2 0-.4-.1-.8-.4-1.1-.3-.3-.6-.5-.9-.7-.4-.2-.8-.4-1.2-.5l-1.3-.4c-.5-.2-1.1-.4-1.6-.7-.6-.3-1.1-.7-1.5-1.1-.5-.5-.9-1-1.1-1.7-.3-.7-.5-1.5-.4-2.4 0-.9.2-1.7.5-2.5.3-.7.8-1.3 1.4-1.8.7-.5 1.4-.9 2.2-1.1.9-.3 1.9-.4 2.9-.4.5 0 1 0 1.5.1.5 0 .9.1 1.4.2.5.1.9.2 1.4.4.5.2.9.3 1.4.6l-1 3.8c-.7-.3-1.5-.5-2.2-.8-.8-.2-1.6-.3-2.4-.3-.6 0-1.1.1-1.6.4-.4.3-.6.8-.6 1.3 0 .4.1.8.4 1.1.3.3.6.5 1 .6.4.2.8.3 1.3.4.5.1.9.2 1.3.4.6.2 1.1.4 1.7.7.5.3 1 .6 1.4 1.1.4.4.8 1 1 1.5.3.7.4 1.4.4 2.1 0 .9-.1 1.7-.4 2.5-.3.8-.7 1.4-1.3 2-.7.6-1.4 1-2.3 1.3-1.1.3-2.2.5-3.3.5-1.3 0-2.6-.1-3.8-.5-1-.3-1.9-.6-2.8-1.1l1.3-3.8zm15.9 0c.4.3.8.5 1.3.7.4.2.8.4 1.2.5.4.1.9.2 1.3.3.5.1 1 .1 1.5.1.6.1 1.2-.1 1.8-.5.3-.3.5-.7.5-1.2 0-.4-.1-.8-.4-1.1-.3-.3-.6-.5-.9-.7-.4-.2-.8-.4-1.2-.5l-1.3-.4c-.5-.2-1.1-.4-1.6-.7-.6-.3-1.1-.7-1.5-1.1-.5-.5-.9-1-1.1-1.7-.3-.7-.5-1.5-.4-2.4 0-.9.2-1.7.5-2.5.3-.7.8-1.3 1.4-1.8.7-.5 1.4-.9 2.2-1.1.9-.3 1.9-.4 2.9-.4.5 0 1 0 1.5.1.5 0 .9.1 1.4.2.5.1.9.2 1.4.4.5.2.9.3 1.4.6l-1 3.8c-.7-.3-1.5-.5-2.2-.8-.8-.2-1.6-.3-2.4-.3-.6 0-1.1.1-1.6.4-.4.3-.6.8-.6 1.3 0 .4.1.8.4 1.1.3.3.6.5 1 .6.4.2.8.3 1.3.4.5.1.9.2 1.3.4.6.2 1.1.4 1.7.7.5.3 1 .6 1.4 1.1.4.4.8 1 1 1.5.3.7.4 1.4.4 2.1 0 .9-.2 1.7-.5 2.5s-.7 1.4-1.3 2c-.7.6-1.4 1-2.3 1.3-1.1.3-2.2.5-3.3.5-1.3 0-2.6-.1-3.8-.5-1-.3-1.9-.6-2.8-1.1l1.4-3.8zm41.8-.7h-11.3l-2.5 5.8h-5.8l11.9-27.4h4.2l11.9 27.4H193l-2.3-5.8zm-9.3-4.5h7.4l-2.4-5.7-1.2-3.5h-.2l-1.2 3.5-2.4 5.7zm35.9 9c-.4.3-.9.5-1.3.8-.5.2-1 .4-1.6.6-.6.2-1.1.3-1.7.4-.6.1-1.2.1-1.8.1-1.4 0-2.8-.2-4.1-.7-1.1-.4-2-1.1-2.8-2-.7-.9-1.3-2-1.6-3.1-.3-1.3-.5-2.7-.5-4 0-1.4.2-2.8.7-4.2.4-1.1 1.1-2.2 1.9-3.1.8-.9 1.8-1.6 2.9-2 1.3-.5 2.6-.7 4-.6 1.2 0 2.3.1 3.4.4.9.2 1.7.6 2.5.9l-1.2 4c-.7-.3-1.3-.5-2-.7-.7-.2-1.5-.3-2.2-.3-.7 0-1.4.1-2 .3-.6.2-1.1.5-1.5.9-.5.5-.8 1.1-1 1.8-.3.8-.4 1.7-.4 2.5 0 .7.1 1.5.3 2.2.2.6.4 1.2.8 1.7s.9.9 1.5 1.1c.7.3 1.4.4 2.1.4.9 0 1.7-.1 2.5-.4.7-.2 1.3-.5 1.9-.8l1.2 3.8zm3.9-16.3c.7-.3 1.4-.6 2.1-.8.7-.2 1.3-.4 2-.5.6-.1 1.3-.2 1.9-.2h2.1c1.1 0 2.3.1 3.3.5.8.3 1.6.7 2.2 1.3.6.6 1 1.3 1.2 2.1.2.9.4 1.8.4 2.7 0 1.2 0 2.4-.1 3.6s-.1 2.5-.1 3.8c0 .9.1 1.8.2 2.6s.3 1.7.6 2.5h-4.1l-.8-2.8h-.4c-.3.5-.7 1-1.2 1.5-.4.4-.9.7-1.4.9-.5.2-1 .4-1.6.5-.5.1-1.1.1-1.6.1-.8 0-1.6-.1-2.3-.4-1.4-.5-2.5-1.5-3-2.9-.3-.8-.4-1.6-.4-2.4 0-1.1.2-2.1.7-3.1.5-.8 1.2-1.5 2-2 .7-.4 1.5-.7 2.3-.8.9-.2 1.8-.3 2.8-.3h.6l.9.1c.3 0 .7.1 1 .1s.7.1 1.1.2c0-.3 0-.5.1-.7v-.6c0-.4-.1-.8-.2-1.1-.1-.3-.3-.6-.5-.8-.3-.2-.6-.4-1-.5-.5-.1-1.1-.2-1.7-.2-.5 0-1.1 0-1.6.1-.9.1-1.8.4-2.7.7l-1.2.5-1.6-3.7zm6.4 13.9c.4 0 .9-.1 1.3-.2s.8-.3 1.1-.5c.3-.2.6-.5.9-.8l.6-.9V334l-.6-.2-.7-.1-.8-.1h-.7c-.6 0-1.1.1-1.6.3-.4.1-.8.4-1.1.6-.3.3-.5.6-.6.9-.1.3-.2.7-.2 1-.1.6.2 1.2.6 1.7.5.3 1.1.4 1.8.4zm30.9-2.9v3.1c0 1.2.1 2.3.3 3.5h-3.5l-.7-2.6h-.4c-.4.5-.8 1-1.3 1.4-.4.4-.8.7-1.3 1-.5.3-1 .4-1.5.5-.6.1-1.2.2-1.9.2-1.1 0-2.3-.2-3.3-.7-.9-.4-1.8-1.1-2.4-1.9-.7-.9-1.2-1.9-1.4-3-.7-2.7-.6-5.5.1-8.2.3-1.2.9-2.3 1.6-3.2.8-.9 1.7-1.6 2.8-2 1.2-.5 2.6-.7 3.9-.7.7 0 1.4.1 2.2.2.6.1 1.2.3 1.8.5v-9h5v20.9zm-9 2.9c.9.1 1.9-.2 2.6-.8.7-.6 1.1-1.3 1.4-2.2V328c-.2-.2-.4-.3-.7-.4-.2-.1-.5-.2-.7-.3-.3-.1-.6-.1-.8-.2-.4 0-.7-.1-1.1-.1-.8 0-1.5.1-2.2.5-.6.3-1 .8-1.4 1.3-.3.6-.6 1.2-.7 1.9-.1.8-.2 1.5-.2 2.3 0 .7.1 1.4.2 2.1.1.6.3 1.2.6 1.7s.7.9 1.1 1.1c.6.5 1.2.6 1.9.6zm28.6 2.5c-.8.6-1.7 1-2.7 1.3-1.2.3-2.5.5-3.7.5-1.2 0-2.4-.2-3.6-.5-1-.3-1.9-.9-2.7-1.6-.9-.9-1.6-2.1-2-3.3-.4-1.4-.6-2.9-.6-4.4 0-1.5.2-2.9.7-4.3.4-1.2 1-2.2 1.8-3.2.7-.8 1.7-1.5 2.7-1.9 1.1-.4 2.3-.6 3.5-.6 1.1 0 2.1.2 3.1.5.9.3 1.6.8 2.3 1.5.6.7 1.1 1.5 1.4 2.4.3 1 .5 2.1.5 3.2 0 .6 0 1.2-.1 1.9 0 .6-.1 1.2-.3 1.7H268c0 .6.1 1.3.2 1.9.1.6.4 1.1.7 1.5.3.5.8.8 1.4 1 .6.2 1.3.3 2 .3.8 0 1.6-.1 2.4-.4.6-.2 1.2-.6 1.8-.9l1.6 3.4zm-6.8-14.1c-.6 0-1.1.1-1.6.4-.4.2-.8.6-1 1-.3.4-.4.9-.5 1.4-.1.5-.2 1-.2 1.6h6.1c0-.4.1-.7.1-1.1 0-.8-.3-1.6-.8-2.3-.5-.8-1.3-1.1-2.1-1zm23.3 15.3v-9.8c0-.5 0-1.1-.1-1.7 0-.6-.2-1.1-.4-1.6s-.5-.9-.9-1.2c-.4-.3-1-.5-1.5-.5s-1 .1-1.4.3c-.4.2-.8.4-1.1.7-.3.3-.6.5-.9.9-.2.3-.4.5-.5.8v12.2h-5v-18.8h3.9l.6 2.6h.5c.3-.4.6-.8 1-1.2.4-.4.8-.7 1.3-1 .5-.3 1.1-.5 1.6-.7.7-.2 1.3-.3 2-.3 1.1 0 2.3.3 3.3.8 1 .7 1.7 1.7 2.1 2.8.6-1.1 1.5-2 2.6-2.7 1.1-.7 2.3-1 3.5-1 .9 0 1.8.1 2.6.4.8.3 1.5.7 2 1.4.6.8 1 1.7 1.2 2.6.3 1.3.5 2.7.4 4.1v10.8h-5v-10c0-.7 0-1.4-.1-2.1-.1-.5-.2-1-.5-1.5-.2-.4-.5-.7-.9-.9-.4-.2-.9-.3-1.4-.3-.5 0-1 .1-1.4.3-.4.2-.8.4-1.1.7l-.9.9c-.2.3-.4.6-.5 1v12h-5zm29.7-9.1l.8 2.6h.1l.6-2.6 3.1-9.7h5.1l-6.1 17c-.2.7-.5 1.3-.7 2-.3.7-.5 1.3-.8 1.9-.3.6-.5 1.1-.8 1.6-.2.4-.5.9-.8 1.3-.6.9-1.4 1.6-2.4 2.1-.9.4-1.9.6-2.8.6-.7 0-1.4-.1-2.1-.3-.8-.2-1.5-.5-2.1-1l1.2-3.6c.2.1.5.2.7.3.2.1.5.1.7.2.2 0 .4.1.6.1h.4c.4 0 .8-.1 1.2-.2.4-.1.9-.4 1.2-.8.3-.4.6-.8.8-1.2l.6-1.5-8.5-18.5h6l4 9.7zm-219.9-66.8h-10v28.3h-6.7v-28.3h-10v-6h26.7v6zm16.7 26.2c-1.2.9-2.6 1.6-4 2-1.7.5-3.5.8-5.4.8-4 0-6.8-1.1-8.7-3.5-1.8-2.3-2.7-5.5-2.7-9.5 0-4.3 1-7.5 3.1-9.7s4.9-3.2 8.7-3.2c1.2 0 2.4.2 3.6.5 1.1.3 2.2.9 3.1 1.6 1 .8 1.7 1.8 2.2 3 .6 1.5.9 3.1.8 4.8 0 .7 0 1.5-.1 2.2-.1.8-.2 1.6-.4 2.5h-14.6c0 1.7.5 3.3 1.6 4.6 1 1 2.5 1.6 4.7 1.6 2.1 0 4.2-.6 6-1.9l2.1 4.2zm-9.1-18c-1.4-.1-2.8.4-3.7 1.5-.9 1.2-1.4 2.6-1.4 4h9.1c.2-1.4-.1-2.8-.8-4.1-.8-1-2-1.5-3.2-1.4zm33.7 18c-1.2.9-2.6 1.6-4 2-1.7.5-3.5.8-5.4.8-4 0-6.8-1.1-8.7-3.5-1.8-2.3-2.7-5.5-2.7-9.5 0-4.3 1-7.5 3.1-9.7 2.1-2.2 4.9-3.2 8.7-3.2 1.2 0 2.4.2 3.6.5 1.1.3 2.2.9 3.1 1.6 1 .8 1.7 1.8 2.2 3 .6 1.5.9 3.1.8 4.8 0 .7 0 1.5-.1 2.2-.1.8-.2 1.6-.4 2.5h-14.6c0 1.7.5 3.3 1.6 4.6 1 1 2.5 1.6 4.7 1.6 2.1 0 4.2-.6 6-1.9l2.1 4.2zm-9.1-18c-1.4-.1-2.8.4-3.7 1.5-.9 1.2-1.4 2.6-1.4 4h9.1c.2-1.4-.1-2.8-.8-4.1-.8-1-2-1.5-3.2-1.4zm29.4 20.1v-13.9c.1-1.5-.2-3-.9-4.3-.7-1-1.8-1.5-2.9-1.4-1.1 0-2.2.3-3.1 1-.8.7-1.4 1.6-1.8 2.6v15.9H151v-24.4h5l.7 3.2h.2c.8-1.1 1.8-2 3-2.7 1.5-.8 3.1-1.2 4.8-1.2 1.1 0 2.2.1 3.2.5.9.3 1.8.9 2.4 1.6.7.9 1.2 1.9 1.5 3.1.4 1.6.5 3.2.5 4.8v15.2H166zm23.9-17.9h12.8V292c-1.4 1.2-3.1 2-4.9 2.5-1.8.5-3.7.8-5.7.8-2.1 0-4.1-.3-6.1-1-1.9-.7-3.5-1.8-4.9-3.2-1.5-1.6-2.6-3.5-3.2-5.6-.8-2.6-1.2-5.3-1.2-8-.1-2.8.4-5.6 1.4-8.3.8-2.1 2.1-4 3.7-5.5 1.5-1.4 3.2-2.4 5.1-3.1 1.9-.6 3.8-1 5.8-1 1.7 0 3.5.1 5.2.4 1.2.2 2.4.5 3.6.9l-1.4 5.6c-.9-.3-1.8-.6-2.7-.8-1.3-.2-2.6-.3-3.9-.3-1.3 0-2.6.2-3.9.6-1.2.4-2.2 1.1-3.1 2.1-.9 1.1-1.6 2.3-2 3.7-.5 1.8-.8 3.6-.7 5.5 0 1.8.2 3.6.7 5.3.4 1.3 1 2.6 1.9 3.7.8.9 1.7 1.7 2.9 2.1 1.1.5 2.3.7 3.5.7.8 0 1.7-.1 2.5-.3.7-.2 1.4-.5 2.1-1v-6.5l-7.4-.8-.1-3.8zm23.7-6.6V284c-.1 1.5.1 2.9.7 4.3.6.9 1.7 1.5 2.8 1.3 1.1 0 2.2-.4 3-1.1.8-.7 1.4-1.6 1.8-2.6v-15.8h6.4v17c0 1.3.1 2.6.2 3.9.1 1.2.3 2.3.6 3.5h-4.8l-1.1-3.5h-.2c-.8 1.3-1.9 2.3-3.1 3.1-1.4.8-3.1 1.3-4.8 1.2-1.1 0-2.3-.1-3.3-.5-.9-.3-1.8-.9-2.4-1.6-.7-.9-1.2-1.9-1.5-3-.4-1.6-.5-3.2-.5-4.8v-15.3h6.2zm33.8 6c-.9-.3-1.8-.5-2.7-.5-1 0-2 .3-2.9.9-.8.6-1.3 1.4-1.5 2.3v15.8h-6.4v-24.5h4.9l.7 3.2h.2c.5-1.1 1.3-2.1 2.3-2.8 1-.7 2.1-1 3.3-1 1 0 2 .2 2.9.5l-.8 6.1zm9.7-6V284c-.1 1.5.1 2.9.7 4.3.6.9 1.7 1.5 2.8 1.3 1.1 0 2.2-.4 3-1.1.8-.7 1.4-1.6 1.8-2.6v-15.8h6.4v17c0 1.3.1 2.6.2 3.9.1 1.2.3 2.3.6 3.5h-4.8l-1.1-3.5h-.2c-.8 1.3-1.9 2.3-3.1 3.1-1.4.8-3.1 1.3-4.8 1.2-1.1 0-2.3-.1-3.3-.5-.9-.3-1.8-.9-2.4-1.6-.7-.9-1.2-1.9-1.5-3-.4-1.6-.5-3.2-.5-4.8v-15.3h6.2z"/></g></g></svg>