<svg xmlns="http://www.w3.org/2000/svg" viewBox="0 0 60 60"><defs><style>.cls-1{fill:#fff}</style></defs><title>btn_up</title><g id="Layer_2" data-name="Layer 2"><path class="cls-1" d="M45.06 56A29.47 29.47 0 0 1 30 60 29.91 29.91 0 0 1 4 45.06 29.47 29.47 0 0 1 0 30 29.91 29.91 0 0 1 14.94 4 29.47 29.47 0 0 1 30 0a29.91 29.91 0 0 1 26 14.94A29.47 29.47 0 0 1 60 30a29.91 29.91 0 0 1-14.94 26zM11.4 48.57a26.72 26.72 0 0 0 8.41 5.6 26 26 0 0 0 20.39 0 25.79 25.79 0 0 0 14-14 26 26 0 0 0 0-20.39 25.79 25.79 0 0 0-14-14 26 26 0 0 0-20.39 0 26.72 26.72 0 0 0-8.41 5.6 26.12 26.12 0 0 0-5.63 8.42 26 26 0 0 0 0 20.39 26.12 26.12 0 0 0 5.63 8.38zm20-4.1A1.83 1.83 0 0 1 30 45a1.91 1.91 0 0 1-.91-.23 1.79 1.79 0 0 1-.7-.67 1.84 1.84 0 0 1-.26-1V21.91l-6.86 6.91a2.67 2.67 0 0 1-.64.38 1.76 1.76 0 0 1-1.41 0 2.67 2.67 0 0 1-.64-.38 2 2 0 0 1 0-2.7l11.36-11.06 11.37 11.07a1.85 1.85 0 0 1 .59 1.35 1.8 1.8 0 0 1-.56 1.32 1.84 1.84 0 0 1-1.35.56 1.79 1.79 0 0 1-1.32-.53L31.88 22v21.13a1.83 1.83 0 0 1-.53 1.34z" id="Layer_1-2" data-name="Layer 1"/></g></svg>