<svg xmlns="http://www.w3.org/2000/svg" viewBox="0 0 20.17 16.52"><defs><style>.cls-1{fill:#fff}</style></defs><title>tw</title><g id="Слой_2" data-name="Слой 2"><path class="cls-1" d="M0 14.64a8.47 8.47 0 0 0 6-1.71A4.3 4.3 0 0 1 2.18 10h1.74v-.09a4.23 4.23 0 0 1-2.28-1.47 4.1 4.1 0 0 1-.91-2.63 3.81 3.81 0 0 0 1.75.46A4.28 4.28 0 0 1 .86 3.74a4.12 4.12 0 0 1 .47-3 12 12 0 0 0 8.55 4.37c0-.26-.05-.48-.07-.7a4.17 4.17 0 0 1 7.05-3.25.33.33 0 0 0 .38.09l2-.75c.11 0 .21-.1.32-.15A3.85 3.85 0 0 1 18 2.51v.07c.35-.08.7-.14 1-.24a10.7 10.7 0 0 1 1.1-.29c-.29.35-.56.71-.87 1s-.66.58-1 .89a.52.52 0 0 0-.16.33 12.21 12.21 0 0 1-.77 4.48 12.06 12.06 0 0 1-2.86 4.44 11.1 11.1 0 0 1-5.45 3 11.89 11.89 0 0 1-6.89-.44c-.75-.28-1.46-.67-2.2-1z" id="Layer_1" data-name="Layer 1"/></g></svg>