<svg xmlns="http://www.w3.org/2000/svg" viewBox="0 0 1360 909.62"><defs><style>.cls-1{fill:none}</style></defs><title>contour</title><g id="Layer_2" data-name="Layer 2"><g id="Layer_1-2" data-name="Layer 1"><path class="cls-1" d="M0 0h1360v908.2H0zm929.25 909.62v-.02l-9.25.02h9.25z"/><path class="cls-1" d="M1317 417.2l3-4a577.17 577.17 0 0 1-20-57c-9-31-21-62-26-73s-21-31-26-35-17-7-23-9-15-6-21-8-15 2-18 3-17 1-19 1-5-3-7-4-5 0-5 0-6-5-8-5-4 0-5 3c-25-7-33-18-36-28s-3-35-3-35 5-2 7-5 4-8 8-16 2-20 0-26-7-6-10-5c-4-30-10-52-39-66s-63.49 7.49-72 16c-15 15-15 31-15 36s2 14 3 17 0 9 0 9l-12 6c-4 2-2 10-2 10s3 6 6 11 10 3 10 3a121 121 0 0 0 4 20c3 10 12 23 16 28s11 12 11 12 4 22 10 39c-15 11-34 11-45 16s-25 21-32 30-8 74-9 85 .35 30.78.35 30.78L957 427.2c10 7 18 10 22 25s10 99 10 99h-4s-6 69-8 79a96 96 0 0 0-2 17s2 12 3 20-9 76-20 111c-10.95 34.8-28.58 130.51-28.75 131.4l327.08-.74S1254 871.2 1249 826.2s-16-92-16-92l8-12 55-87s58-68 59-110-38-108-38-108z"/><path class="cls-1" d="M985 551.2h4s-6-84-10-99-12-18-22-25L942.35 417 924 404.2s-6-10-15-14-24-4-24-4-5-6-8-10-2-18-2-18a25.83 25.83 0 0 0 5-8c2-5 3-11 3-20 8 5 9-10 9-17s5-19 4-22-6-4-6-4 1-3-2-28-26-42-61-43-51 33-55 46 2 32 2 32-4 0-6 5 8 19 9 24a109.77 109.77 0 0 0 3 11s5 17 5 21 17 14 17 14-6 2-19 0-39-10-39-10l-18.17-25.29c10.64 38.7 25.86 103.66 34.17 120.28 10 20 20 10 50 30s30 90 30 110 10 70 10 90v50c0 10-10 30-30 50 30 60 25.33 125.42 25.33 125.42h83.92c.16-.89 17.8-96.57 28.75-131.4 11-35 21-103 20-111s-3-20-3-20a96 96 0 0 1 2-17c2-10.01 8-79.01 8-79.01z"/><path class="cls-1" d="M850 684.2c0-20-10-70-10-90s0-90-30-110-40-10-50-30c-8.31-16.62-23.53-81.59-34.17-120.28-2.16-7.86-4.14-14.65-5.83-19.72-10-30-40-50-80-40-29.52 7.38-48.15 14.77-59.9 46.26-4.17 11.18-7.48 25.4-10.1 43.74-10 70 0 50-10 80s-20 40-30 60-20 30-30 70 0 100-10 120-20 50 0 80 30 40 30 40c-9 18-16.13 81-17.45 93.33-.14 1.35-.22 2.1-.22 2.1h343S850 844.2 820 784.2c20-20 30-40 30-50zm-463 159s-20 2-28-7 1-40 1-40-2-124 0-146 15-31 19-36 8-13 11-23 4-27 9-30 6-24 4-38 4-46 6-49 0-26-2-44c-1.92-17.3-9.36-30.9-9.05-43.47S396 357.2 388 345.2s-19-29-33-33-62-16-67-25-12-18-13-18a13.38 13.38 0 0 1-1-5 96.82 96.82 0 0 0 14-35c4-3 6-4 5-7s0-11 1-14 5-11 2-13a46.75 46.75 0 0 1-6-5s6-14 5-24-3-38-21-50c1-10-5-37-52-37s-60 47-60 47-9 5-9 20a175.39 175.39 0 0 0 3 30s-4 0-5 2 1 8 1 8a103.28 103.28 0 0 0 1 14 38.72 38.72 0 0 0 3 10s0 5 1 5 6 4 7 3a83.68 83.68 0 0 0 9 36v15s-9 6-11 11c-4-1-17 2-21 4s-13 11-16 11-22 7-24 6-10-4-14-3-55 39-58 47 2 16 2 16-8 9-8 12a21.8 21.8 0 0 0 1 6s-11 13-11 21 5 11 5 11-7 15-5 21a72 72 0 0 0 3 8s-7 32-7 58a407 407 0 0 0 2 43s-2 5 0 7 6 8 7 12-5 12 0 23 18 28 27 28c-6 20-26 134-23 142l3 3-14.33 153.42h424v-.42H374z"/><path class="cls-1" d="M584 213.2c-4-1-5 1-5 1s-3-26-22-46-50-24-67-17-34 27-39 42 0 47 5 61 9 27 17 16a52 52 0 0 0 14 24c1 5 6 26 5 33s-4 7-4 7a7.35 7.35 0 0 0-6 1c-3 2-16 15-44 25s-39 12-40 25c0 .51 0 1-.05 1.53-.31 12.57 7.13 26.17 9.05 43.47 2 18 4 41 2 44s-8 35-6 49 1 35-4 38-6 20-9 30-7 18-11 23-17 14-19 36 0 146 0 146-9 31-1 40 28 7 28 7l-13 66h128l.55-1.67c1.32-12.29 8.43-75.31 17.45-93.33 0 0-10-10-30-40s-10-60 0-80 0-80 10-120 20-50 30-70 20-30 30-60 0-10 10-80c2.62-18.34 5.93-32.55 10.1-43.74s-4.1-2.26-4.1-6.26-1-17-2-26a194.21 194.21 0 0 1-1-22v-13l1-3a8.4 8.4 0 0 0 8 3c5-1 8-8 8-15s-2-24-6-25z"/></g></g></svg>