<svg xmlns="http://www.w3.org/2000/svg" viewBox="0 0 1359.69 914.42"><defs><style>.cls-1{fill:none}.cls-2,.cls-3{fill:#fff}.cls-2{opacity:.5}</style></defs><title>team</title><g id="Layer_2" data-name="Layer 2"><g id="Layer_1-2" data-name="Layer 1"><g id="comandCont"><path class="cls-1" d="M0 0h1359.69v914.42H0z"/><g id="sasha"><path class="cls-2" d="M988.69 477.41a1 1 0 0 1-1-1 96.33 96.33 0 0 0-.94-11.85 1 1 0 0 1 2-.28 96.5 96.5 0 0 1 1 12.13 1 1 0 0 1-1.06 1zm-3.43-23.73a1 1 0 0 1-1-.71 41 41 0 0 0-4.73-10.68 1 1 0 0 1 1.67-1.1 43 43 0 0 1 5 11.2 1 1 0 0 1-.67 1.25 1 1 0 0 1-.28.04zm-13.09-19.62a1 1 0 0 1-.65-.24c-2.5-2.15-5.55-4.59-9.34-7.46a1 1 0 0 1 1.21-1.59c3.82 2.9 6.91 5.37 9.44 7.54a1 1 0 0 1-.65 1.76zm-19-14.64a1 1 0 0 1-.59-.19l-6.72-4.86-3-2.18a1 1 0 1 1 1.17-1.62l3 2.18 6.73 4.86a1 1 0 0 1-.59 1.81zm-19.44-14.13a1 1 0 0 1-.6-.2c-4.09-3.06-7.19-5.51-9.48-7.51a1 1 0 0 1 1.31-1.51c2.25 2 5.32 4.39 9.37 7.41a1 1 0 0 1-.6 1.8zm-18.58-15.14a1 1 0 0 1-.48-.12 42.38 42.38 0 0 0-11-3.88 1 1 0 0 1 .43-2 44.32 44.32 0 0 1 11.55 4.08 1 1 0 0 1-.48 1.88zm-23.19-5.61h-.06c-1.89-.12-3.06-.12-3.14-.12a1 1 0 0 1-.79-.4l-5.28-7a1 1 0 0 1 1.6-1.2l5 6.62c.56 0 1.42.05 2.79.14a1 1 0 0 1-.06 2zm-115-17.83h-.22c-4.18-1-8.12-1.92-11.71-2.87a1 1 0 1 1 .51-1.93c3.57.94 7.49 1.9 11.65 2.85a1 1 0 0 1-.22 2zm110.15-.19a1 1 0 0 1-.93-1.38c1.47-3.61 2.88-7.37 4.2-11.19a1 1 0 1 1 1.89.65c-1.33 3.85-2.76 7.65-4.24 11.29a1 1 0 0 1-.96.63zm-104.83-1.36a1 1 0 0 1-.82-.43c-1.56-2.27-3.44-5.23-5.58-8.8a12.36 12.36 0 0 1-.81-1.56 1 1 0 0 1 1.83-.81 10.54 10.54 0 0 0 .69 1.32c2.13 3.56 4 6.48 5.53 8.71a1 1 0 0 1-.82 1.57zm-28.54-4.69a1 1 0 0 1-.32-.05c-4.77-1.6-7.82-3-9.33-4.24a1 1 0 0 1 1.28-1.54c.89.74 3.12 2 8.68 3.88a1 1 0 0 1-.32 1.95zm141.22-16.64a1 1 0 0 1-.28 0 1 1 0 0 1-.68-1.24c1.11-3.85 2.13-7.74 3-11.56a1 1 0 0 1 1.95.45c-.9 3.86-1.93 7.79-3 11.67a1 1 0 0 1-1.03.68zm-122.24-.42a1 1 0 0 1-1-.78c-.22-1-.45-2-.67-3.06-.64-3-1.31-6-2-8.62a1 1 0 0 1 1.93-.51c.69 2.63 1.36 5.72 2 8.7.22 1 .44 2 .67 3a1 1 0 0 1-.76 1.19zm127.67-23h-.17a1 1 0 0 1-.81-1.16c.69-4 1.26-7.95 1.68-11.82a1 1 0 1 1 2 .22c-.43 3.92-1 7.93-1.7 11.95a1 1 0 0 1-1.04.85zM766 320.38a1 1 0 0 1-.94-.65c-1.19-3.21-2.7-7.42-3.82-11.46a1 1 0 1 1 1.93-.54c1.1 4 2.6 8.13 3.77 11.3a1 1 0 0 1-.59 1.29 1 1 0 0 1-.35.06zm-5.67-23.2a1 1 0 0 1-1-1c.06-5 1.56-8.72 4.59-11.44a1 1 0 0 1 1.73.63v.05a1 1 0 0 1-.34.75c-2.63 2.34-3.93 5.62-4 10a1 1 0 0 1-.95 1.02zm4.32-11.77zM903 296.61a1 1 0 0 1-1-1c.07-1.84.11-3.68.11-5.46 0-2.18-.05-4.35-.16-6.45a1 1 0 1 1 2-.1c.11 2.13.16 4.33.16 6.55 0 1.81 0 3.67-.11 5.54a1 1 0 0 1-1 .92zm-137.91-22.22H765a1 1 0 0 1-.91-1.08 108.73 108.73 0 0 1 1.7-12 1 1 0 0 1 2 .39 106.58 106.58 0 0 0-1.67 11.77 1 1 0 0 1-1.03.92zm136.59-1.71a1 1 0 0 1-1-.84 92.48 92.48 0 0 0-2.58-11.57 1 1 0 0 1 1.92-.56 94.55 94.55 0 0 1 2.64 11.83 1 1 0 0 1-.83 1.14zm-131.74-21.73a1 1 0 0 1-.94-1.34 54.81 54.81 0 0 1 5.27-11 1 1 0 1 1 1.69 1.08 52.85 52.85 0 0 0-5.08 10.6 1 1 0 0 1-.94.66zm124.91-1.18a1 1 0 0 1-.91-.58A68.21 68.21 0 0 0 888 239a1 1 0 1 1 1.64-1.15 70.12 70.12 0 0 1 6.08 10.53 1 1 0 0 1-.9 1.42zm-111.93-18.69a1 1 0 0 1-.69-1.73 73.05 73.05 0 0 1 9.49-7.59 1 1 0 0 1 1.11 1.66 71 71 0 0 0-9.23 7.38 1 1 0 0 1-.68.28zm98.17-.81a1 1 0 0 1-.7-.28 61.59 61.59 0 0 0-8.27-6.75l-.93-.62a1 1 0 1 1 1.09-1.68l1 .64a63.58 63.58 0 0 1 8.54 7 1 1 0 0 1-.7 1.72zm-78.33-12.48a1 1 0 0 1-.41-1.91 72.36 72.36 0 0 1 11.48-4 1 1 0 0 1 .5 1.94 70.34 70.34 0 0 0-11.16 3.89 1 1 0 0 1-.4.08zm58.38-.59a1 1 0 0 1-.38-.08 71.69 71.69 0 0 0-11.25-3.62 1 1 0 0 1 .46-1.95 73.76 73.76 0 0 1 11.56 3.72 1 1 0 0 1-.39 1.92zm-35.25-5.37a1 1 0 0 1-.09-2 76.87 76.87 0 0 1 12.14-.1 1 1 0 1 1-.14 2 75.07 75.07 0 0 0-11.83.1z"/><path class="cls-3" d="M860 243.13a1 1 0 0 1-.38-.08l-11.33-4.72a1 1 0 0 1 .29-1.92 75.79 75.79 0 0 1 10-.3l-5.61-4.8a1 1 0 1 1 1.3-1.52l7.85 6.72a1 1 0 0 1-.73 1.76 73.81 73.81 0 0 0-8.39-.15l7.41 3.09a1 1 0 0 1-.39 1.92zm13.21-8.88a1 1 0 0 1-.38-.08l-7.34-3.06a1 1 0 0 1 .29-1.92 49.13 49.13 0 0 1 5.51-.22l-2.88-2.47a1 1 0 0 1 1.3-1.52l5.09 4.36a1 1 0 0 1-.73 1.76c-1.24-.09-2.48-.15-3.74-.13l3.26 1.36a1 1 0 0 1-.39 1.92zm-1.07-17.12a1 1 0 0 1-.38-.08l-5-2.07a1 1 0 0 1 .29-1.92c1-.09 1.92-.14 2.88-.15l-1.28-1.1a1 1 0 0 1 1.3-1.52l3.44 2.95a1 1 0 0 1-.73 1.76h-.79l.62.26a1 1 0 0 1-.39 1.92z"/><path class="cls-3" d="M968.58 195.86c-19.4 37.87-39 83-37 130.57a1 1 0 0 1-1 1 1 1 0 0 1-1-1c-2-48 17.68-93.46 37.19-131.56a4.42 4.42 0 0 0-.37-4.35 6.88 6.88 0 0 0-5.74-3.19c-44.59 3.27-83.11 2.63-121.12-2a575.21 575.21 0 0 1-60.12-12c-6.59-1.83-13-3.94-19.1-6-11-3.65-21.39-7.09-32.73-9-2.41.05-3.89 2.54-3.92 3.95 1.54 13.64 3.55 27.51 5.49 40.92 6.88 47.45 14 96.52 1.44 143.81a1 1 0 0 1-1 .74 1 1 0 0 1-.26 0 1 1 0 0 1-.71-1.22c12.44-46.89 5.36-95.76-1.49-143-1.95-13.45-4-27.35-5.51-41a1 1 0 0 1 0-.11c0-2.45 2.34-6 6-6h.16c11.53 1.92 22 5.4 33.12 9.08 6.13 2 12.46 4.13 19 5.94a573.37 573.37 0 0 0 59.87 12c37.86 4.62 76.25 5.25 120.79 2a8.94 8.94 0 0 1 7.51 4.14 6.38 6.38 0 0 1 .5 6.28zm-47.71 106.55c4.87-41.08 35.54-96.78 35.85-97.34a1 1 0 1 0-1.75-1c-.31.56-31.17 56.61-36.09 98.08s8.32 79.86 8.45 80.24a1 1 0 0 0 .94.67 1 1 0 0 0 .33-.06 1 1 0 0 0 .61-1.27c-.12-.36-13.21-38.27-8.34-79.32zM728 175.51a1 1 0 0 0-.72 1.22c.19.76 19.4 76.2 19.4 109.68 0 33.32-6.81 46.4-6.88 46.53a1 1 0 0 0 1.76 1c.29-.54 7.12-13.55 7.12-47.48 0-33.74-19.26-109.42-19.46-110.18a1 1 0 0 0-1.22-.77zm176.16 45.66a1 1 0 0 0-1.39-.25 18.84 18.84 0 0 1-13.91 3.1 1 1 0 1 0-.34 2 20.42 20.42 0 0 0 3.49.3 20.86 20.86 0 0 0 11.91-3.73 1 1 0 0 0 .25-1.42zm.83 8.3a1 1 0 0 0-1.36-.4l-9.3 5.05a1 1 0 0 0 1 1.76l9.3-5.05a1 1 0 0 0 .37-1.36zm2.86 6.88a1 1 0 0 0-1.37.33l-6.27 10.24a1 1 0 0 0 1.71 1l6.27-10.24a1 1 0 0 0-.32-1.33zm-118.49-19.83a18.42 18.42 0 0 1-12-4.58 1 1 0 0 0-1.33 1.5 20.44 20.44 0 0 0 13.27 5.09 1 1 0 0 0 0-2zm-14.74-.34a1 1 0 0 0-1.46 1.37L781 226a1 1 0 0 0 1.46-1.37zm-4.27 4.82a1 1 0 0 0-.18 1.4 11.69 11.69 0 0 1 .2 13.54 1 1 0 1 0 1.62 1.17 13.75 13.75 0 0 0-.23-15.93 1 1 0 0 0-1.41-.18zm84.53 25.43a1 1 0 0 0-1.18.78l-1 5a1 1 0 0 0 .78 1.18h.2a1 1 0 0 0 1-.8l1-5a1 1 0 0 0-.8-1.16zm-3.75 2.09a1 1 0 0 0-1.34.45l-3 6a1 1 0 0 0 1.79.89l3-6a1 1 0 0 0-.44-1.34zm46.41 252.17a35 35 0 0 0-48.69-25.19 1 1 0 0 0 .23-.28 1 1 0 0 0-.41-1.35 1.27 1.27 0 0 1-.46-1.4 2.67 2.67 0 0 1 1.41-1.53 3 3 0 0 1 2.39-.25 1.57 1.57 0 0 1 1 1.55 1 1 0 1 0 2 .32 3.56 3.56 0 0 0-2.25-3.72 4.88 4.88 0 0 0-4.07.33 4.65 4.65 0 0 0-2.41 2.76 3.24 3.24 0 0 0 1.45 3.71 1 1 0 0 0 .47.12h.13a35 35 0 1 0 49.22 25zm-28 39.11a33 33 0 1 1 26-38.72 33 33 0 0 1-26.01 38.72zm9.57-56a28.5 28.5 0 1 0-16 52.16 28.54 28.54 0 0 0 28-34 28.31 28.31 0 0 0-12.02-18.19zm-10.64 50.6a27.5 27.5 0 0 1-10.56-54 27.84 27.84 0 0 1 5.34-.52 27.51 27.51 0 0 1 5.22 54.5zm-15-22.44l.5 2.55-8.29 1.62-.4-2 2.24-3.37q1-1.49 1.23-2a3.82 3.82 0 0 0 .36-.88 1.72 1.72 0 0 0 0-.72.91.91 0 0 0-.43-.65 1.2 1.2 0 0 0-.86-.1 2.26 2.26 0 0 0-1 .52 8.09 8.09 0 0 0-1.07 1.15l-2.08-1.65a9.3 9.3 0 0 1 1.26-1.42 5.37 5.37 0 0 1 1.21-.78 6.56 6.56 0 0 1 1.56-.49 4.91 4.91 0 0 1 2.06 0 3.15 3.15 0 0 1 1.57.85 2.92 2.92 0 0 1 .8 1.53 4.25 4.25 0 0 1-.22 2.5 8 8 0 0 1-.71 1.34q-.46.72-2 2.8v.08zm8.1-3.63l-1.35-6.91-2.85.56-3.39 7.88.44 2.27 4.56-.89.43 2.21 3-.6-.43-2.21 1.26-.25-.45-2.31zm-4.93 1l.9-2.13a8.4 8.4 0 0 0 .38-1.24h.09a6.68 6.68 0 0 0 .09.68c.06.43.12.77.17 1l.26 1.33zm9.39-9.18l2.7-.53-2 12.58-2.7.53zm11.59-2.15l.36 1.82-2.15 10.38-3.2.63 2.19-9.62-4.95 1-.5-2.56zm10.53-104.3a1 1 0 1 1 1.39-1.44A7.07 7.07 0 0 1 891 400a1 1 0 1 1-1.82-.82 5 5 0 0 0-1.03-5.46zm-4 17.34a1 1 0 0 1 0-1.41l4-4a1 1 0 1 1 1.42 1.41l-4 4a1 1 0 0 1-1.41 0zm-13.92 12.53a1 1 0 0 1 .2-1.4L876 418a1 1 0 1 1 1.2 1.6l-5.55 4.18a1 1 0 0 1-1.4-.2zm-11.33 11.77l3.12-5.68a1 1 0 1 1 1.75 1l-3.12 5.68a1 1 0 1 1-1.75-1zM853.65 450l.67-5.26a1 1 0 1 1 2 .25l-.67 5.26a1 1 0 0 1-1 .87h-.13a1 1 0 0 1-.87-1.12zm-1.21 13.88v-5.75a1 1 0 0 1 2 0v5.75a1 1 0 1 1-2 0zm-12.39-.72a1 1 0 0 1 1.27-1.55l2.75 2.25a1 1 0 1 1-1.27 1.55zm-9-9a1 1 0 1 1 1.25-1.56l2.5 2a1 1 0 1 1-1.25 1.56zM826.6 446a1 1 0 0 1-1.42 1.41l-2.73-2.77a1 1 0 0 1 1.42-1.41zm-8-10.86a1 1 0 0 1-1.76.95l-2-3.74a1 1 0 1 1 1.76-.95zM813.06 423a1 1 0 1 1-1.89.67l-1.58-4.47a1 1 0 0 1 1.89-.67zm-3.38-11.24a1 1 0 0 1-.85 1.13h-.14a1 1 0 0 1-1-.86l-.79-5.5a1 1 0 1 1 2-.28zm-2.24-12.61a1 1 0 0 1-1-1l-.25-5a1 1 0 0 1 .95-1 1 1 0 0 1 1 .95l.25 5a1 1 0 0 1-.95 1zm-.44-13.58l1-2.75a1 1 0 0 1 1.88.68l-1 2.75a1 1 0 0 1-1.88-.68z"/></g><g id="artem"><path class="cls-3" d="M448.7 185.42a4.47 4.47 0 0 1-3.27-1.42c-8.21-8.73-22-38.2-27.61-50.47l-1.59-3.5 3.54 1.5a72.76 72.76 0 0 0 15.43 4.24 86.44 86.44 0 0 1 13.33 3.37c-1.41-8.43-1.8-27.72-1.84-30.19l-.05-3 2.44 1.8c.75.55 16.65 12.29 24 19.76 1.33-9.49 4.24-19.42 7-28l1-3.12 1.71 2.79a92.29 92.29 0 0 0 9.2 11.82c2.59 3 5.24 6 7.56 9.31 1.24-4.93 2.49-9.14 3.71-13.24 1.47-5 3-10.07 4.48-16.42l.78-3.33 1.92 2.84C514.49 96.08 526 111 530 116.2c2.9-5.25 10.79-19.2 14.54-24.2l2.35-3.09 4.82 55.75a5.44 5.44 0 0 1-2.15 4.84 5.53 5.53 0 0 1-5.34.74 75.89 75.89 0 0 0-52.72-.4 74.13 74.13 0 0 0-23.34 14c-4 3.49-9.84 10.79-15.72 19.53a4.47 4.47 0 0 1-3.36 2zm-26.62-49.79c5.55 12 18.2 38.52 25.54 46.32a1.5 1.5 0 0 0 2.33-.19c2.25-3.35 10.08-14.7 16.22-20.11a77.14 77.14 0 0 1 24.29-14.58 78.93 78.93 0 0 1 54.83.41 2.55 2.55 0 0 0 2.46-.34 2.43 2.43 0 0 0 1-2.19l-4.15-47.71c-5.08 7.84-13 22.23-13.1 22.4l-1.1 2-1.4-1.8c-.58-.75-13-16.7-19.14-25.34-1.25 5-2.51 9.22-3.73 13.35-1.47 5-3 10.07-4.48 16.42l-.83 3.54-1.9-3.1a92.29 92.29 0 0 0-9.2-11.82 119.62 119.62 0 0 1-7.72-9.54c-2.72 8.77-5.4 18.6-6.31 27.72l-.37 3.67-2.3-2.88c-4.19-5.25-17.67-15.66-23.26-19.89.24 9 .93 25.51 2.28 29.08l1.24 3.28-3.23-1.33a72.76 72.76 0 0 0-15.43-4.24 90.45 90.45 0 0 1-12.54-3.14zM461.5 349.5l-.54-.24-38.32 13.27c-3.5 1.21-7.48 2.59-10.61 5.29-4.77 4.11-6.66 10.51-4.3 14.58a6.87 6.87 0 0 0 6.28 3.35 14.38 14.38 0 0 0 4.75-.91c7.93-2.79 15.79-6.44 23.38-10 3.74-1.74 7.61-3.54 11.4-5.2 3.57-1.56 8-3.5 10.58-7.4a10.11 10.11 0 0 0 1.22-8.19 7 7 0 0 0-3.84-4.55zm.11 11.12c-2.07 3.15-6.06 4.89-9.27 6.29-3.82 1.67-7.71 3.48-11.47 5.23-7.53 3.5-15.31 7.13-23.11 9.87-3.59 1.26-6.3.86-7.44-1.11-1.42-2.45-.42-7.28 3.66-10.81 2.69-2.32 6.22-3.54 9.63-4.72l37.15-12.87a4.23 4.23 0 0 1 1.69 2.42 7.13 7.13 0 0 1-.84 5.7zm75.53 41.28a1 1 0 0 0-2 .43l.54 2.47c-2.24-.3-4.61.66-7.23 3l-.9.8a14.64 14.64 0 0 1-4.13 3q.85-6 1.72-12.07a1 1 0 0 0-2-.29c-2.81 19.29-5.39 38.78-7.89 57.64s-5.08 38.32-7.88 57.59l-.13.88 9.33 2.51a1 1 0 1 0 .52-1.93l-7.61-2q.4-2.77.8-5.56l12.37-5.57a1 1 0 0 0-.82-1.82l-11.22 5.05q1.24-8.72 2.42-17.44a1 1 0 0 0 .84 0 164.52 164.52 0 0 0 29-15.46 1 1 0 0 0-1.11-1.66 162.5 162.5 0 0 1-28.44 15.2q1.11-8.14 2.18-16.21a47.69 47.69 0 0 0 30.75-16.76 1 1 0 0 0 .09-.18l2.37 10.81a1 1 0 0 0 1 .79h.21a1 1 0 0 0 .76-1.19zm-15.24 21a1 1 0 0 0 .33-.21 39.47 39.47 0 0 1 15.38-9.24l1.69 7.7a1 1 0 0 0-.69.19l-18.38 13.86q.83-6.2 1.67-12.32zm1.34-9.16c2.3-.59 4-2.16 5.71-3.68l.87-.78c2.28-2 4.21-2.8 5.91-2.45a1 1 0 0 0 .43 0l1 4.66a41.51 41.51 0 0 0-14.87 8.42q.42-3.07.85-6.15zm21.51 38.64a45.67 45.67 0 0 1-28.94 16l1.49-11.26.28-2.14h.05a1 1 0 0 0 .45-.11 109 109 0 0 0 24.32-16.94 1 1 0 0 0-1.36-1.47 107 107 0 0 1-23.14 16.24q1-7.76 2.08-15.63a.95.95 0 0 0 1.11 0l18.62-14 6.4 29.22a1 1 0 0 0-1.35.08zm-122.56-77.47l3 2h-5l-2 4v-4h-3l3-3v-3l2 2 4-1zm11.5-6.5l3 2h-5l-2 4v-4h-3l3-3v-3l2 2 4-1zm131.49 6.92a1 1 0 0 1-.83 1.15l-20 3.21-3.71.58 3.3 12.37a3 3 0 0 1-2.9 3.77h-20.75a3 3 0 0 1-2.9-3.77l3.33-12.48 1.93.52-3.33 12.48a1 1 0 0 0 1 1.26h20.79a1 1 0 0 0 1-1.26l-3.33-12.48 1-.26a66.8 66.8 0 0 1-8.08.71h-.72c-20.11 0-39.63-15-44.65-34.52a1 1 0 1 1 1.94-.5c4.86 18.86 23.93 33.35 43.4 33a89.66 89.66 0 0 0 12.51-1.42l20-3.21a1 1 0 0 1 1 .85z"/><path class="cls-2" d="M456.3 275.42a1 1 0 1 1-1.77.93 124.77 124.77 0 0 1-5.11-11 1 1 0 1 1 1.85-.76c1.49 3.69 3.19 7.31 5.03 10.83zm12.7 21.4a1 1 0 0 0 .18-1.4c-2.44-3.15-4.76-6.42-6.88-9.72a1 1 0 1 0-1.68 1.08c2.15 3.34 4.5 6.66 7 9.86a1 1 0 0 0 1.4.18zm4.55 8.86a1 1 0 0 0-.67 1.25 38 38 0 0 1 1.58 10.84v.69a1 1 0 0 0 1 1 1 1 0 0 0 1-1v-.73a40.06 40.06 0 0 0-1.66-11.42 1 1 0 0 0-1.25-.63zm0 23.59a1 1 0 0 0-1.31.53 14 14 0 0 1-4.16 5.81 1 1 0 1 0 1.2 1.6 15.93 15.93 0 0 0 4.81-6.63 1 1 0 0 0-.53-1.31zm-29.26-87.37a1 1 0 1 0-2 .41c.82 3.93 1.83 7.87 3 11.71a1 1 0 0 0 1 .71 1 1 0 0 0 .29 0 1 1 0 0 0 .66-1.25c-1.15-3.83-2.15-7.71-2.95-11.58zm-3.38-34.61h.09a1 1 0 0 0 1-.92 80.83 80.83 0 0 1 1.67-11.71 1 1 0 0 0-1.94-.48 81 81 0 0 0-1.73 12 1 1 0 0 0 .91 1.11zm.72 11a1 1 0 0 0-1-1 1 1 0 0 0-1 1c.07 4 .34 8.06.79 12.07a1 1 0 0 0 1 .89h.11a1 1 0 0 0 .88-1.11c-.41-3.94-.71-7.94-.78-11.88zm141.07-17.72l.11.68.68.14c.4.08 1.9.68 4.52 5.14a1 1 0 0 0 1.72-1c-1.92-3.26-3.62-5.19-5.16-5.87-.21-1.17-.47-2.38-.78-3.59a1 1 0 0 0-1.94.49c.36 1.36.64 2.71.85 4.01zm7.75 61.43a17.59 17.59 0 0 1-9.26 6.23 1 1 0 0 0 .25 2 1 1 0 0 0 .25 0A19.55 19.55 0 0 0 592 263.3a1 1 0 0 0-1.55-1.26zm7-32.66h.23a1 1 0 0 0 .74-1.2 94 94 0 0 0-3.6-11.59 1 1 0 0 0-1.87.71 92 92 0 0 1 3.52 11.34 1 1 0 0 0 1.03.78zm1.32 9.9a1 1 0 0 0-1 1 45 45 0 0 1-2 11.53 1 1 0 0 0 1.91.61 47 47 0 0 0 2.12-12.05 1 1 0 0 0-.98-1.05zm-16.32 41.2a1 1 0 0 0-2 .26 115.48 115.48 0 0 0 2.21 11.91 1 1 0 0 0 1.94-.48 113.34 113.34 0 0 1-2.1-11.65zm-24.37-125a1 1 0 0 0-1.18 1.56 56.66 56.66 0 0 1 8.27 8.38 1 1 0 0 0 1.54-1.27 57.88 57.88 0 0 0-8.59-8.64zM573.81 174a1 1 0 1 0-1.69 1.07 90.54 90.54 0 0 1 5.7 10.41 1 1 0 0 0 .91.58 1 1 0 0 0 .42-.09 1 1 0 0 0 .49-1.33 92.57 92.57 0 0 0-5.83-10.64z"/></g><g id="yana"><path class="cls-3" d="M714.06 343a4.93 4.93 0 0 0-8.32 2.66 11.33 11.33 0 0 0 3.57 11.16 5.82 5.82 0 0 0 3.6 1.4 4.46 4.46 0 0 0 1.37-.21 5.3 5.3 0 0 0 3.35-3.85 11.33 11.33 0 0 0-3.57-11.16zm1.65 10.61a3 3 0 0 1-5.15 1.65 9.34 9.34 0 0 1-2.9-9 3.39 3.39 0 0 1 2-2.49 2.43 2.43 0 0 1 .75-.11 3.87 3.87 0 0 1 2.36 1 9.34 9.34 0 0 1 2.9 9zm-7-13.88c-.81-2.42-.49-8.94 2.09-11.87a4.11 4.11 0 0 1 4.05-1.43 3.21 3.21 0 0 1 2.38 1.82c1.63 3.5-2.25 10.82-2.7 11.64a1 1 0 1 1-1.76-1c1.51-2.77 3.56-7.88 2.65-9.83a1.22 1.22 0 0 0-1-.71 2.13 2.13 0 0 0-2.16.79c-2 2.25-2.35 8-1.7 9.91a1 1 0 0 1-1.9.63zm6.4 2c.51-2.5 4-8 7.73-9.24a4.1 4.1 0 0 1 4.23.78 3.21 3.21 0 0 1 1.16 2.77c-.33 3.85-7.34 8.25-8.14 8.74a1 1 0 0 1-1-1.71c2.69-1.65 7-5.06 7.19-7.21a1.22 1.22 0 0 0-.49-1.09 2.12 2.12 0 0 0-2.27-.39c-2.84 1-6 5.72-6.41 7.75a1 1 0 1 1-2-.4zm17.45 6.65c-2.16 3.2-10.44 3.62-11.38 3.65a1 1 0 0 1 0-2c3.15-.13 8.59-1 9.8-2.78a1.22 1.22 0 0 0 .11-1.19 2.12 2.12 0 0 0-1.79-1.45c-2.95-.54-8 2.06-9.37 3.63a1 1 0 0 1-1.52-1.3c1.66-1.93 7.42-5 11.26-4.29a4.11 4.11 0 0 1 3.31 2.74 3.21 3.21 0 0 1-.39 3.02zm-1.67 11.36a4.11 4.11 0 0 1-.44 4.27 3.21 3.21 0 0 1-2.65 1.38c-3.86 0-8.82-6.66-9.37-7.41a1 1 0 0 1 1.62-1.18c1.86 2.54 5.61 6.58 7.76 6.59a1.22 1.22 0 0 0 1-.57 2.12 2.12 0 0 0 .2-2.29c-1.19-2.76-6.19-5.52-8.24-5.76a1 1 0 0 1 .24-2c2.61.34 8.37 3.42 9.91 7zm-19.89.56c-.61 2.48-4.37 7.82-8.11 8.91a4.88 4.88 0 0 1-1.37.21 4 4 0 0 1-2.82-1.16 3.21 3.21 0 0 1-1-2.81c.49-3.83 7.69-7.94 8.51-8.39a1 1 0 0 1 1 1.75c-2.75 1.53-7.22 4.76-7.5 6.9a1.22 1.22 0 0 0 .44 1.11 2.13 2.13 0 0 0 2.25.48c2.88-.84 6.24-5.46 6.73-7.47a1 1 0 0 1 1.94.48zm-5.41-5a16.68 16.68 0 0 1-9.75 3.73 7.17 7.17 0 0 1-1.78-.21 4.11 4.11 0 0 1-3.12-3 3.21 3.21 0 0 1 .54-3c2.37-3 10.66-2.91 11.6-2.88a1 1 0 0 1 1 1 1 1 0 0 1-1 1c-3.15-.1-8.64.41-10 2.11a1.22 1.22 0 0 0-.19 1.18 2.13 2.13 0 0 0 1.69 1.56c2.91.75 8.15-1.52 9.6-3a1 1 0 1 1 1.43 1.4zm-15.67-13.23a3.21 3.21 0 0 1 1.62-2.52c1.85-1.05 5-.53 7.57.22a11.56 11.56 0 0 1-2.6-5.63 4.11 4.11 0 0 1 1.77-3.91 3.2 3.2 0 0 1 3-.46c3.66 1.24 6.24 9.12 6.52 10a1 1 0 0 1-1.91.6c-1-3-3.22-8-5.26-8.72a1.22 1.22 0 0 0-1.18.21 2.12 2.12 0 0 0-.92 2.11c.2 2.46 2.85 5.74 4.82 7.32a1 1 0 0 1 .36.29 5.07 5.07 0 0 0 .76.46 1 1 0 0 1-.86 1.81 7.68 7.68 0 0 1-1.28-.82c-2.92-1.26-8-2.8-9.81-1.75a1.22 1.22 0 0 0-.63 1 2.13 2.13 0 0 0 1 2.09c2.4 1.8 8.11 1.7 10 .89a1 1 0 1 1 .78 1.84 13.35 13.35 0 0 1-4.72.71c-2.59 0-5.49-.5-7.28-1.84a4.11 4.11 0 0 1-1.74-3.9zm27.38 17c1.46 2.09 3 8.44 1.34 12a4.11 4.11 0 0 1-3.48 2.52h-.35a3.16 3.16 0 0 1-2.45-1.09c-2.56-2.9-.89-11-.69-11.93a1 1 0 0 1 2 .42c-.67 3.08-1.19 8.57.24 10.18a1.21 1.21 0 0 0 1.12.4 2.12 2.12 0 0 0 1.85-1.37c1.27-2.72 0-8.29-1.17-10a1 1 0 1 1 1.64-1.14z"/><path class="cls-2" d="M832.93 526.38a1 1 0 0 1-1.21-.73s-.58-2.3-1.63-5.72a1 1 0 0 1 1.91-.59c1.07 3.47 1.65 5.8 1.65 5.82a1 1 0 0 1-.72 1.22zm-40.9-51c-3.69-1.15-7.75-2.26-12.05-3.29a1 1 0 1 0-.47 1.94c4.27 1 8.28 2.13 11.93 3.26a1 1 0 0 0 .3 0 1 1 0 0 0 .3-2zm30.49 20.78a1 1 0 0 0-1.74 1 92.25 92.25 0 0 1 5.22 11.13 1 1 0 0 0 1.86-.74 94.3 94.3 0 0 0-5.34-11.36zm-18.72-16.44a1 1 0 1 0-.8 1.83 43.41 43.41 0 0 1 10.45 6.1 1 1 0 0 0 1.29-1.53 45.38 45.38 0 0 0-10.94-6.4zm-36-10.23c-1.79-.34-3.56-.66-5.27-1q-.57-2.51-1.15-5.19a1 1 0 1 0-2 .42q.66 3 1.31 5.86l.15.65.66.11c1.9.32 3.88.67 5.88 1.05h.19a1 1 0 0 0 .19-2zm-20.52-69.63a1 1 0 1 0-1.93.51c.9 3.37 1.8 6.89 2.67 10.48a1 1 0 1 0 1.94-.47c-.9-3.6-1.8-7.14-2.7-10.52zM741.16 379a1 1 0 1 0-1.9.61c1.07 3.34 2.14 6.81 3.16 10.33a1 1 0 1 0 1.92-.56c-1.03-3.52-2.1-7.01-3.18-10.38zM757 442.14a1 1 0 1 0-2 .4l2.17 10.62a1 1 0 0 0 1 .8h.2a1 1 0 0 0 .78-1.18zm-4.55-21.21a1 1 0 1 0-2 .44c.76 3.33 1.52 6.79 2.32 10.57a1 1 0 0 0 1 .79h.21a1 1 0 0 0 .77-1.19c-.81-3.8-1.57-7.26-2.33-10.6zm-16.8-57.87a1 1 0 1 0-1.87.7q1.05 2.81 2.05 5.62a1 1 0 1 0 1.88-.67q-1.02-2.82-2.09-5.65zM721 314.34a1 1 0 1 0-1.9.62c1.13 3.46 1.61 5.64 1.61 5.67a1 1 0 0 0 1 .79h.21a1 1 0 0 0 .77-1.19c-.04-.12-.53-2.33-1.69-5.89zm-157.8 62.61a1 1 0 0 0-1.09.9c-.36 3.75-.68 7.61-1 12.15a1 1 0 0 0 .93 1.07h.07a1 1 0 0 0 1-.93c.33-4.53.65-8.37 1-12.1a1 1 0 0 0-.91-1.09zm-1.86 24.27a1 1 0 0 0-1.07.93c-.22 3.14-.4 5.35-.58 7.16q-.25 2.46-.48 4.93a1 1 0 0 0 .9 1.09h.09a1 1 0 0 0 1-.91q.23-2.47.48-4.92c.18-1.84.36-4.06.58-7.22a1 1 0 0 0-.92-1.06zm-2.14 24.23a1 1 0 0 0-1.09.9c-.31 3.32-.73 7.69-1.23 12.07a1 1 0 0 0 .88 1.11h.11a1 1 0 0 0 1-.89c.5-4.4.92-8.78 1.23-12.11a1 1 0 0 0-.91-1.08zm13.08-96.22a1 1 0 0 0-1.25.66c-1.16 3.75-2.23 7.73-3.2 11.8a1 1 0 0 0 .74 1.2h.23a1 1 0 0 0 1-.77c1-4 2-8 3.16-11.67a1 1 0 0 0-.68-1.22zm-5.76 23.62a1 1 0 0 0-1.16.81c-.69 3.84-1.32 7.9-1.87 12.06a1 1 0 0 0 .86 1.12h.13a1 1 0 0 0 1-.87c.55-4.13 1.17-8.16 1.85-12a1 1 0 0 0-.81-1.12zm-10.11 96.75a1 1 0 0 0-1.15.83c-.7 4.36-1.46 8.23-2.34 11.84a1 1 0 0 0 .74 1.21 1 1 0 0 0 .24 0 1 1 0 0 0 1-.76c.89-3.66 1.66-7.59 2.37-12a1 1 0 0 0-.86-1.13zm-35.18 61.16a1 1 0 0 0-1.37.35A119.2 119.2 0 0 0 514.2 522a1 1 0 1 0 1.82.83 117.16 117.16 0 0 1 5.57-10.68 1 1 0 0 0-.36-1.4zm29.48-37.58a1 1 0 0 0-1.29.58 58.65 58.65 0 0 1-5.31 10.67 1 1 0 0 0 1.68 1.08 60.64 60.64 0 0 0 5.5-11 1 1 0 0 0-.58-1.33zm-15.21 19a53.86 53.86 0 0 0-8.7 8.78 1 1 0 0 0 1.56 1.25 51.83 51.83 0 0 1 8.37-8.45 1 1 0 1 0-1.23-1.58zm158.8-218.36a1 1 0 1 0-1.3 1.58 67 67 0 0 1 8.65 8.26 1 1 0 1 0 1.5-1.32 68.94 68.94 0 0 0-8.86-8.51zm-10.37-6.66a59.88 59.88 0 0 0-11.52-4.39 1 1 0 1 0-.52 1.93A57.85 57.85 0 0 1 683 269a1 1 0 0 0 .9-1.79zm26.65 25a1 1 0 0 0-1.69 1.08 92.53 92.53 0 0 1 5.79 10.54 1 1 0 1 0 1.81-.85 94.61 94.61 0 0 0-5.92-10.76zm-129 14.61a1 1 0 0 0-1.35.43c-1.82 3.5-3.53 7.25-5.08 11.14a1 1 0 0 0 1.86.74c1.53-3.83 3.21-7.52 5-11a1 1 0 0 0-.49-1.3zm78.73-46a76.15 76.15 0 0 0-12.29.16 1 1 0 0 0 .09 2h.09a74.52 74.52 0 0 1 12-.16 1 1 0 0 0 1.07-.93 1 1 0 0 0-1.02-1.07zM594 287a89.51 89.51 0 0 0-7.55 9.67 1 1 0 0 0 1.66 1.12 87.48 87.48 0 0 1 7.38-9.45A1 1 0 0 0 594 287zm19-15.41a75.92 75.92 0 0 0-10.12 6.95 1 1 0 0 0 1.26 1.55 73.9 73.9 0 0 1 9.85-6.76 1 1 0 0 0-1-1.74zm22.84-8.71l-2.39.57a84 84 0 0 0-9.36 2.92 1 1 0 0 0 .71 1.87 82.21 82.21 0 0 1 9.13-2.85l2.35-.56a1 1 0 1 0-.44-2zm-125 269.89a1 1 0 0 0-1.28.61c-.68 1.94-1.31 3.88-1.86 5.76a1 1 0 0 0 .68 1.24 1 1 0 0 0 .28 0 1 1 0 0 0 1-.72c.54-1.84 1.16-3.75 1.83-5.66a1 1 0 0 0-.63-1.24z"/><path class="cls-3" d="M578.82 535.45c3.34-2.72 4.76-5.66 3.81-8-.76-1.87-2.9-3-6-3.11h-1.49a1 1 0 0 0-.06-.68c-.08-.16-.16-.3-.25-.45l2.13-1.39a.5.5 0 1 0-.55-.84l-2.12 1.38-.23-.32 3.94-3.24a.5.5 0 1 0-.64-.77l-4 3.28a9 9 0 0 0-15.36 5.75c-3 1-6 2.31-7.67 4a.5.5 0 1 0 .71.71c1.5-1.5 4.2-2.72 7-3.65a8.92 8.92 0 0 0 .25 1.66c-3.76 2.66-8.32 6.59-11 11.39a.5.5 0 0 0 .19.68.51.51 0 0 0 .24.06.5.5 0 0 0 .44-.26c2.5-4.49 6.81-8.25 10.45-10.86.09.24.19.48.3.71l-.06.06a8.91 8.91 0 0 0-2.23 3.71 33.25 33.25 0 0 0-3.41 13.07.5.5 0 0 0 .47.53.5.5 0 0 0 .5-.47 33.05 33.05 0 0 1 2.42-10.74c0 .11.05.22.1.32.88 2.15 3 2.79 5.4 2.79a21.29 21.29 0 0 0 3.94-.44 3.35 3.35 0 0 1 0 .34 8.49 8.49 0 0 0 8.27 10.39 8.65 8.65 0 0 0 4.54-1.3 8.48 8.48 0 0 0 0-14.37zm-14.89-14.16a7 7 0 0 1 9.34 3.23c-.51.07-1 .17-1.56.28a5 5 0 0 0-2.85-2.23 5.75 5.75 0 0 0-7 3.36c-.58.15-1.18.31-1.8.48a7 7 0 0 1 3.87-5.12zm-.4 6.68a13.64 13.64 0 0 1 1.42-1.08l.06-.06.07-.07v-.08a.52.52 0 0 0 0-.09.54.54 0 0 0 0-.09.46.46 0 0 0 0-.1.45.45 0 0 0 0-.09.38.38 0 0 0 0-.05c1-.2 1.6-.31 1.63-.31a.5.5 0 0 0-.16-1c-.11 0-.8.14-1.85.35a3.82 3.82 0 0 1 .82-.56 3.65 3.65 0 0 1 2.68-.23 3.11 3.11 0 0 1 1.36.86c-.86.26-1.73.57-2.6.92a28.41 28.41 0 0 0-3.43 1.71zm-3.53-.47l1.6-.44a5 5 0 0 0 0 .56c-.46.28-1 .6-1.5.95a7 7 0 0 1-.1-1.07zm.3 2.12l.29-.19-.26.3zm-1.73 7.66c-.44-1.09.19-2.66 1.73-4.31a17.12 17.12 0 0 1 3-2.5h.05a1 1 0 0 0 .26-.19 25.73 25.73 0 0 1 4.18-2.15 21.56 21.56 0 0 1 8.75-1.77c2.26.1 3.8.78 4.25 1.87.6 1.47-.84 3.83-3.57 6a3.91 3.91 0 0 1-.63-1.08l-1.28-3.4-.17-.16c-.21-.2-2.22-1.9-6.49-.28a8.57 8.57 0 0 0-4.46 4.13l-.17.38 1.75 4.65c-4.2.74-6.57.38-7.21-1.19zm19.2 10.84a6.55 6.55 0 0 1-5.57.65 6.49 6.49 0 0 1-4.23-7.59 5.82 5.82 0 0 0-.28-3.35l-1.49-4a6.45 6.45 0 0 1 3.15-2.74c2.54-1 3.86-.45 4.28-.22l1.09 2.89a6.05 6.05 0 0 0 2.74 3.15 6.52 6.52 0 0 1 3.26 4.66 6.45 6.45 0 0 1-2.96 6.54zm-4.51-2.42a2.57 2.57 0 0 0-1.13 0 1 1 0 0 0-.83.71c-.15.63.45 1.27 1.44 1.51a2.87 2.87 0 0 0 .67.08c.67 0 1.18-.28 1.3-.76a.89.89 0 0 0-.12-.68 2.12 2.12 0 0 0-1.34-.87zm-.29 1.21a.34.34 0 1 1 .06-.24.34.34 0 1 1-.06.24zm208.73 32.62l-5.6-8a1.49 1.49 0 0 0-1.54-.39 1.47 1.47 0 0 0-1 1.17l-2.33 10 9.6 45a.5.5 0 0 0 .49.4h.1a.5.5 0 0 0 .38-.59l-9.53-44.61a2.35 2.35 0 0 0 2.95-.51 2.33 2.33 0 0 0 1.4.18 2.36 2.36 0 0 1 2.78-.6 2.35 2.35 0 0 0 1.48-.94l9.12 46a.5.5 0 0 0 1-.2zm-6.84-7.44a.5.5 0 0 1 .47.07l1 1.45a1.63 1.63 0 0 1-2.19.41l.36-1.53a.49.49 0 0 1 .36-.41zm5.36 7.7l-.08.13a1.36 1.36 0 0 1-2 .35.49.49 0 0 0-.39-.1.5.5 0 0 0-.34.23l-.08.13a1.36 1.36 0 0 1-2 .35.49.49 0 0 0-.39-.1.5.5 0 0 0-.34.23l-.08.13a1.35 1.35 0 0 1-2 .35.49.49 0 0 0-.15-.07l1.48-6.37a3 3 0 0 0 1.2.27 2.43 2.43 0 0 0 1.82-.83l3.6 5.1a.49.49 0 0 0-.25.19zm7.8 46.15a.5.5 0 0 1-.38.59h-.11a.5.5 0 0 1-.49-.39l-9.31-43.31a.5.5 0 0 1 .38-.59.51.51 0 0 1 .59.38zm-2.62.62a.5.5 0 0 1-.38.6h-.11a.5.5 0 0 1-.49-.39l-9.8-43.38a.5.5 0 0 1 1-.22z"/></g><g id="misha"><path class="cls-3" d="M216.69 175.44a1 1 0 0 1-1 1l-43-1a1 1 0 0 1-1-1 1 1 0 0 1 1-1l43 1a1 1 0 0 1 1 1zm-1 3l-43-1a1 1 0 0 0 0 2l43 1a1 1 0 0 0 0-2zm-1 4l-42-1a1 1 0 0 0 0 2l42 1a1 1 0 0 0 0-2zm-1 4l-40-1a1 1 0 0 0-1 1 1 1 0 0 0 1 1l40 1a1 1 0 0 0 0-2zm-3 4l-34-1a1 1 0 0 0-1 1 1 1 0 0 0 1 1l34 1a1 1 0 0 0 0-2zm-4 4l-27-1a1 1 0 0 0-1 1 1 1 0 0 0 1 1l27 1a1 1 0 0 0 0-2zm-8 4l-13-1a1 1 0 1 0-.15 2l13 1h.08a1 1 0 0 0 .08-2zm80.95-22l-42-1a1 1 0 0 0-1 1 1 1 0 0 0 1 1l42 1a1 1 0 0 0 0-2zm0 4l-42-1a1 1 0 0 0 0 2l42 1a1 1 0 0 0 0-2zm-1 4l-40-1a1 1 0 1 0 0 2l40 1a1 1 0 0 0 0-2zm-1 4l-38-1a1 1 0 0 0-.05 2l38 1a1 1 0 0 0 0-2zm-2.93 4l-33.21-1a1 1 0 0 0-1 1 1 1 0 0 0 1 1l33.21 1a1 1 0 0 0 0-2zm-3.9 4l-25.21-1a1 1 0 0 0-1 1 1 1 0 0 0 1 1l25.21 1a1 1 0 0 0 0-2zm-7.25 3h-11a1 1 0 1 0 0 2h11a1 1 0 0 0 0-2zm28.3-6a1 1 0 0 1-1.26-.65l-6.15-19.21-.52 8.48a25.37 25.37 0 0 1-25 23.47h-1.47c-13.24-.81-24.42-12.94-24.42-26.48a1 1 0 0 1 0-.13 5.4 5.4 0 0 0-1.37-4.18 6.65 6.65 0 0 0-5.12-2.2 6.86 6.86 0 0 0-7 7c0 13.32-12.15 25-26 25a25.33 25.33 0 0 1-25-25v-13L158.49 180a1 1 0 1 1-1.6-1.2l12-16 .06-.05v-.07a.9.9 0 0 1 .73-.28l113.94 3.86a1.65 1.65 0 0 1 1 .83l8 25a1 1 0 0 1-.62 1.28zm-121.18-24.99l111.94 3.79v-4l-111.94-3.79zm50.6 3.72l-50.59-1.72v9a23.31 23.31 0 0 0 23 23c12.79 0 24-10.75 24-23a9.17 9.17 0 0 1 3.59-7.29zm60.79 9.7l.47-7.63-50-1.69a8.25 8.25 0 0 1 .75.75 7.33 7.33 0 0 1 1.85 5.7c0 12.5 10.34 23.67 22.54 24.42a23.32 23.32 0 0 0 24.39-21.55zm-25.2 159.95a6 6 0 0 0-7.83-4.53l-35.68 12.18a1 1 0 0 0-.31.18 6.07 6.07 0 0 0-10.74 0 1 1 0 0 0-.31-.18l-35.68-12.18a6 6 0 0 0-7.83 4.53c-1.17 6.1-2.44 14.81-1.81 21.69a4.54 4.54 0 0 0 2.16 3.5c1.73 1.14 4.5 1.6 7.83 1.6 12.92 0 34.2-6.87 35.32-7.23a1 1 0 0 0 .32-.18 6.07 6.07 0 0 0 10.74 0 1 1 0 0 0 .32.18c1.12.37 22.4 7.23 35.32 7.23 3.33 0 6.1-.46 7.83-1.6a4.54 4.54 0 0 0 2.16-3.5c.63-6.88-.68-15.6-1.81-21.69zm-96.92 23.52a2.56 2.56 0 0 1-1.26-2c-.6-6.65.64-15.16 1.78-21.13a4 4 0 0 1 5.22-3L200.41 351a15.82 15.82 0 0 0 0 8.73c-10.03 3.27-34.32 9.65-40.46 5.6zm47.74-2.92c-2.76 0-5-3.14-5-7s2.24-7 5-7 5 3.14 5 7-2.24 6.99-5 6.99zm49 .91a2.56 2.56 0 0 1-1.26 2c-6.14 4-30.43-2.38-40.48-5.56a15.81 15.81 0 0 0 0-8.73l34.72-11.86a4 4 0 0 1 5.22 3c1.17 5.98 2.41 14.5 1.8 21.14zm-8-15.91a3 3 0 1 0 3 3 3 3 0 0 0-3-3.01zm0 4a1 1 0 1 1 1-1 1 1 0 0 1-1 .99zm-6 5a3 3 0 1 0 3 3 3 3 0 0 0-3-3.01zm0 4a1 1 0 1 1 1-1 1 1 0 0 1-1 .99zm-14-10a5 5 0 1 0 5 5 5 5 0 0 0-5-5.01zm0 8a3 3 0 1 1 3-3 3 3 0 0 1-3 2.99zm-37-3a3 3 0 1 0 3 3 3 3 0 0 0-3-3.01zm0 4a1 1 0 1 1 1-1 1 1 0 0 1-1 .99zm-8-10a3 3 0 1 0 3 3 3 3 0 0 0-3-3.01zm0 4a1 1 0 1 1 1-1 1 1 0 0 1-1 .99zm-8 4a3 3 0 1 0 3 3 3 3 0 0 0-3-3.01zm0 4a1 1 0 1 1 1-1 1 1 0 0 1-1 .99zm-9-14a5 5 0 1 0 5 5 5 5 0 0 0-5-5.01zm0 8a3 3 0 1 1 3-3 3 3 0 0 1-3 2.99z"/><path class="cls-2" d="M116.28 285.92a1 1 0 0 1-.62 1.27c-4.09 1.41-8 2.61-11.55 3.57a1 1 0 0 1-.26 0 1 1 0 0 1-.26-2c3.52-.94 7.36-2.13 11.41-3.52a1 1 0 0 1 1.28.68zM92 291.25l-1.39.17a63.15 63.15 0 0 0-10.52 2.19 1 1 0 0 0 .28 2 1 1 0 0 0 .28 0 61.18 61.18 0 0 1 10.18-2.12l1.44-.18a1 1 0 0 0-.27-2zm-23.31 6.48c-3.63 1.53-7.29 3.27-10.92 5.27a1 1 0 1 0 1 1.76c3.58-1.94 7.18-3.69 10.72-5.2a1 1 0 1 0-.79-1.84zm-21.3 11.49c-3.4 2.23-6.7 4.61-9.82 7.07a1 1 0 0 0 1.24 1.57c3.07-2.42 6.32-4.76 9.67-7a1 1 0 0 0-1.1-1.67zm111.56-43c-2.36 1.2-6.14 3.1-10.77 5.29a1 1 0 1 0 .86 1.81c4.65-2.21 8.45-4.11 10.82-5.32a1 1 0 1 0-.91-1.78zm-21.68 10.27c-3.79 1.67-7.51 3.22-11.05 4.63a1 1 0 0 0 .37 1.93 1 1 0 0 0 .41-.05c3.56-1.42 7.3-3 11.12-4.66a1 1 0 0 0-.8-1.83zM28.45 324.23a100.06 100.06 0 0 0-8.23 8.9 1 1 0 0 0 1.55 1.26 97.87 97.87 0 0 1 8.06-8.72 1 1 0 0 0-1.39-1.44zm115.23-120q-.15-.89-.29-1.82a1 1 0 0 0-2 .31q.15.93.3 1.83a75.54 75.54 0 0 0 2.34 10 1 1 0 0 0 1 .7 1 1 0 0 0 .3 0A1 1 0 0 0 146 214a73.53 73.53 0 0 1-2.33-9.75zm-1.78-13.66c-.38-4.05-.62-8.06-.72-11.91a1 1 0 1 0-2 .05c.1 3.9.35 7.95.73 12a1 1 0 0 0 1 .91h.09a1 1 0 0 0 .9-1.03zM14.67 342.75a1 1 0 0 0-1.36.37 52.61 52.61 0 0 0-4.85 11.19 1 1 0 0 0 1.92.56A50.59 50.59 0 0 1 15 344.12a1 1 0 0 0-.33-1.37zm293.12-155.88h.1a1 1 0 0 0 .9-1.09c-.39-4.09-.87-8.12-1.44-12a1 1 0 1 0-2 .29c.56 3.81 1 7.8 1.43 11.86a1 1 0 0 0 1.01.94zm-.79 33.85a1 1 0 0 0-1.18.78 104.92 104.92 0 0 1-3 11.49 1 1 0 1 0 1.9.62 106.75 106.75 0 0 0 3.1-11.71 1 1 0 0 0-.82-1.18zm-3.77-58.37a1 1 0 0 0 1 .79h.21a1 1 0 0 0 .77-1.18c-.86-4.09-1.85-8-2.93-11.71a1 1 0 0 0-1.92.56c1.09 3.6 2.07 7.49 2.92 11.54zM162 245.23a1 1 0 0 0-1.92.55c.79 2.76 1.66 5.73 2.53 8.63a17.66 17.66 0 0 0-.48 2.54 1 1 0 0 0 .86 1.12h.13a1 1 0 0 0 1-.87 14.09 14.09 0 0 1 .5-2.48 1 1 0 0 0 0-.6c-.87-2.98-1.76-6.05-2.62-8.89zm145.62-47.34v.58a91.564 91.564 0 0 1-.17 11.3 1 1 0 0 0 .92 1.07h.08a1 1 0 0 0 1-.92c.18-2.38.28-4.78.28-7.13 0-1.46 0-2.95-.11-4.4v-.58a1 1 0 0 0-1-.95 1 1 0 0 0-.96 1.02zm-163.2-53.75a1 1 0 0 0 1.28-.6 41.81 41.81 0 0 1 5.4-10.36 1 1 0 0 0-1.61-1.18 43.81 43.81 0 0 0-5.66 10.85 1 1 0 0 0 .59 1.29zm13.35-19.35h.18a1 1 0 0 0 1-.82 72.76 72.76 0 0 1 3.2-11.41 1 1 0 0 0-1.88-.68 73.92 73.92 0 0 0-3.27 11.74 1 1 0 0 0 .76 1.17zm-17.47 42.92h.06a1 1 0 0 0 1-.94A102.74 102.74 0 0 1 142.7 155a1 1 0 1 0-2-.35 104.56 104.56 0 0 0-1.38 12 1 1 0 0 0 .97 1.06zm9 56.67a1 1 0 0 0-.32 1.38c3.35 5.42 6.68 7.67 7.85 8.34v.11a1 1 0 0 0 1.93-.53l-.14-.52a1 1 0 0 0-.55-.64s-3.68-1.76-7.42-7.81a1 1 0 0 0-1.34-.34zM283 119.18l.81.71a1 1 0 0 0 1.35-1.48l-.59-.53a55.79 55.79 0 0 0-3.15-10.26 1 1 0 0 0-1.85.76 53.41 53.41 0 0 1 3.1 10.22 1 1 0 0 0 .33.58zm71.64 183c-3.24-1.9-6.79-3.87-10.54-5.86a1 1 0 0 0-.94 1.77c3.72 2 7.25 3.93 10.47 5.82a1 1 0 0 0 1-1.73zm19.65 13.43a108.94 108.94 0 0 0-9.4-7 1 1 0 0 0-1.12 1.66 106.86 106.86 0 0 1 9.23 6.9l.28.24a1 1 0 1 0 1.31-1.51zm8.15 9.65a1 1 0 1 0-1.68 1.09 88.15 88.15 0 0 1 5.69 10.41 1 1 0 0 0 1.81-.85 89.94 89.94 0 0 0-5.77-10.61zm-49.07-34.4c-3.45-1.7-7.11-3.44-10.87-5.18a1 1 0 0 0-.84 1.82c3.75 1.73 7.39 3.47 10.83 5.16a1 1 0 1 0 .88-1.79zM171.78 90.57a75.15 75.15 0 0 0-6.57 10.23 1 1 0 0 0 1.76.95 73.09 73.09 0 0 1 6.4-10 1 1 0 1 0-1.59-1.22zM410 417.31a1 1 0 1 0-2 .31c1.14 7.26 1.7 11.87 1.7 11.91a1 1 0 0 0 1 .88h.12a1 1 0 0 0 .87-1.11s-.58-4.69-1.69-11.99zm-98.44-136.53a634.98 634.98 0 0 0-11.07-4.73 1 1 0 1 0-.77 1.85c3.71 1.55 7.43 3.13 11 4.71a1 1 0 0 0 .4.08 1 1 0 0 0 .4-1.92zm88.64 89.35a1 1 0 1 0-1.93.52c1 3.71 2 7.62 2.9 11.63a1 1 0 0 0 1 .77h.23a1 1 0 0 0 .75-1.2c-.97-4.06-1.95-8-2.95-11.72zm-7.23-23a1 1 0 0 0-1.87.7c1.31 3.51 2.61 7.32 3.86 11.32a1 1 0 0 0 1 .7 1 1 0 0 0 .3 0 1 1 0 0 0 .66-1.25c-1.32-4.1-2.63-7.94-3.92-11.49zm11.54 45.7a1 1 0 0 0-.78 1.18c.79 3.85 1.55 7.81 2.27 11.79a1 1 0 0 0 1 .82h.18a1 1 0 0 0 .81-1.16c-.72-4-1.48-8-2.27-11.83a1 1 0 0 0-1.21-.82zM237.27 69a68.14 68.14 0 0 0-12-1.77 1 1 0 1 0-.12 2 66.15 66.15 0 0 1 11.67 1.72 1 1 0 0 0 .24 0 1 1 0 0 0 .24-2zm62.59 174.6a1 1 0 0 0-1.32.51c-1.6 3.59-3.41 7.17-5.38 10.62a1 1 0 1 0 1.74 1c2-3.51 3.84-7.15 5.46-10.8a1 1 0 0 0-.5-1.35zM190 74.57a57.19 57.19 0 0 0-9.92 7.08 1 1 0 1 0 1.33 1.5 55.2 55.2 0 0 1 9.57-6.83 1 1 0 1 0-1-1.74zM248.76 73a1 1 0 0 0-.84 1.82 59.8 59.8 0 0 1 10.15 6 1 1 0 1 0 1.18-1.62 61.81 61.81 0 0 0-10.49-6.2zm-35.66-5.51a62.26 62.26 0 0 0-11.93 2.34 1 1 0 0 0 .58 1.91 60.21 60.21 0 0 1 11.55-2.26 1 1 0 0 0-.2-2zm84.28 72.72a1 1 0 0 0 .92-1.38 76.87 76.87 0 0 0-5.45-10.85 1 1 0 0 0-1.7 1 74.76 74.76 0 0 1 5.31 10.57 1 1 0 0 0 .93.63zm-8.07 131.34l-4-1.55c.69-.86 1.75-2.23 3.05-4.06a1 1 0 1 0-1.63-1.16c-2.28 3.2-3.82 5-3.84 5a1 1 0 0 0 .4 1.59s1.93.72 5.25 2a1 1 0 0 0 .37.07 1 1 0 0 0 .37-1.93zm-21-184.29a1 1 0 1 0-1.46 1.37 65.92 65.92 0 0 1 7.24 9.32 1 1 0 0 0 .84.46 1 1 0 0 0 .54-.16 1 1 0 0 0 .3-1.38 68 68 0 0 0-7.41-9.64z"/><path class="cls-3" d="M172.74 524.73a1 1 0 0 1 .43-1.17l10-6a1 1 0 0 1 1 1.71l-9.31 5.59 1.75 5.24a1 1 0 0 1-1.9.63zM203 495.36c-2.63.88-6.51 4.64-8.48 7.61-1.73 2.59-2.62 6.88-1.32 9.22v.09c0 .06.07.13.12.19a1 1 0 0 1 .09.2 5.27 5.27 0 0 1 .49 3.53l-2 9.55a2 2 0 0 1 .82 1 1.84 1.84 0 0 1 1.65-.54c.48.1 1.32.52 1.58 2.19a10.3 10.3 0 0 1-1.32 6.22 2.45 2.45 0 0 1-2 1.4 1.59 1.59 0 0 1-.33 0 1.83 1.83 0 0 1-1.29-1.16 2 2 0 0 1-1.14.56l-1.14 5.58a5.32 5.32 0 0 1-3.3 3.86 1.48 1.48 0 0 0-.38 1.69c.31 1.06 1.12 1.84 1.64 1.84a1 1 0 1 1 0 2c-1.7 0-3.1-1.7-3.57-3.29a4.09 4.09 0 0 1-.11-1.9 5.41 5.41 0 0 1-.61-.09l-24-5.08a4.15 4.15 0 0 1 .25 1.36c0 1.11 1.72 2.61 2.55 3.17a1 1 0 1 1-1.11 1.66c-.35-.24-3.45-2.37-3.45-4.83a4.89 4.89 0 0 0-1.35-2.64 5.34 5.34 0 0 1-1.83-5.22l5.25-24.78a5.29 5.29 0 0 1 4.42-4.16 25.17 25.17 0 0 0 8.68-7.76c2.11-3.17 7.32-7.33 10.52-8.39a1 1 0 1 1 .63 1.9c-2.81.94-7.6 4.78-9.48 7.61a27 27 0 0 1-7.05 7l23.4 5a5.35 5.35 0 0 1 .75.24 14 14 0 0 1 2.24-8.29c1.86-2.79 6-7.24 9.52-8.39a1 1 0 1 1 .63 1.9zm-46.27 42a3.3 3.3 0 0 0 1.29.59l3.15.67a4.56 4.56 0 0 1-3.5-5.4l4.74-22.38a4.56 4.56 0 0 1 5.4-3.52l-3.15-.67a3.31 3.31 0 0 0-.91-.05c-.55.28-1.11.54-1.7.78a1 1 0 0 1-.29.06 3.3 3.3 0 0 0-1 1.79l-5.3 24.77a3.32 3.32 0 0 0 .53 2.58c.16.12.43.42.75.75zm10.67-28.08a2.56 2.56 0 0 0-3 2l-4.74 22.38a2.56 2.56 0 0 0 2 3l18.47 3.91a2.56 2.56 0 0 0 3-2l4.74-22.38a2.56 2.56 0 0 0-2-3zm26.6 19.11a7.94 7.94 0 0 0-1.15 5.43 7.94 7.94 0 0 0 1.15-5.43zm-3 2.19zm.66-17.19l-.07-.12a3.31 3.31 0 0 0-2.07-1.4l-3.15-.67a4.56 4.56 0 0 1 3.51 5.4l-4.81 22.4a4.55 4.55 0 0 1-5.4 3.52l3.15.67a3.33 3.33 0 0 0 4-2.57l1.35-6.39A7.53 7.53 0 0 1 188 530a9.36 9.36 0 0 1 1.15-3 4.06 4.06 0 0 1 .68-.83l2.18-10.3a3.31 3.31 0 0 0-.42-2.48z"/></g><g id="serega"><path class="cls-3" d="M1148.09 75.5c-8.3-3.63-16.73-10.71-25.64-18.2-8-6.76-16.37-13.76-25.27-18.75a107.76 107.76 0 0 0-41.43-13.19 1 1 0 0 0-.23 0 101.14 101.14 0 0 0-20.6 0 1 1 0 0 0-.74.08 91.15 91.15 0 0 0-18.81 4.08c-1.07.36-4.22 1.45-8.47 3.29a1 1 0 0 0-.39.16 108.48 108.48 0 0 0-25.37 15.22 1 1 0 0 0-.13.1c-7.3 6.11-13.62 13.73-16.36 22.92C960.8 84 964.59 97.75 975.9 112a1 1 0 0 0 1.57-1.24c-.29-.37-.56-.74-.84-1.1a1 1 0 0 0 0-.52l-.09-.35c-1.1-4.33-4-15.85 6.79-25.67 11.18-10.16 53.28-23.6 80.19-19.75 28.29 4 40.25 31 41.14 47.07a.94.94 0 0 0 0 .15.85.85 0 0 0 .41.61 1 1 0 0 0 .14.09 1 1 0 0 0 .21.06h.13c.35 0 34.94 1.63 43-34.78a1 1 0 0 0-.46-1.07zm-42.73-29.29c2.2 1.59 4.38 3.25 6.53 5a1 1 0 0 0-.47.4c-6.64 11.58-13.25 14.83-16.11 14.93a2 2 0 0 1-1.79-.64c-1.73-2.59-.85-6.24.12-9.13.65-2 7.34-7.25 11.41-10.13a1 1 0 0 0 .31-.43zm-29.28-14.61a106 106 0 0 1 13.57 5.31c-6 4.24-8.44 9.75-10.25 13.82s-2.56 5.35-4.39 4.74c-6.49-2.17-9-6.13-7.35-11.78 1.78-6.26 7.74-11.51 8.42-12.09zm-22.61-4.46c-3.29 4-4.93 8.89-6.39 13.3-2 5.9-3.64 11-8.59 12a4.27 4.27 0 0 1-3.72-.88c-1.93-1.59-3.09-5-3.09-9.14 0-5.76 2.76-13 3.62-15.14a98.75 98.75 0 0 1 18.17-.14zm-40.75 22.52c1.71 6.85-2 10.44-2.59 10.92-1.61.84-6 2.51-8.76.9-1.78-1.06-2.68-3.44-2.68-7.06a25.35 25.35 0 0 1 8.83-19.75c2.8-1.22 5.12-2.1 6.68-2.67-2.02 4-3.44 9.83-1.48 17.66zm-32.58 2c-.41 2.93-.73 7.45.66 10.22 2 4.05 3.55 9.28-2.69 13.74-1.94 1.38-3.67 1.63-5.14.73-2.64-1.61-4.15-6.68-3.48-11.59a51.05 51.05 0 0 1 10.64-13.12zm126.48 57.8c-1.32-16.77-13.84-43.88-42.79-48-27.91-4-70.1 9.6-81.81 20.25-9.37 8.52-9.14 18.44-8.14 24.21-8.06-12-10.53-23.42-7.34-34.12.27-.89.57-1.76.91-2.62.43 4 2.08 7.43 4.48 8.9a5.52 5.52 0 0 0 2.9.83 7.66 7.66 0 0 0 4.45-1.64c8.43-6 4.58-13.73 3.31-16.26-1.62-3.23-.37-9.92-.06-11.41a101 101 0 0 1 20-12.57 27.85 27.85 0 0 0-5.79 17.43c0 4.38 1.23 7.33 3.66 8.78a7.4 7.4 0 0 0 3.84 1 16.72 16.72 0 0 0 7-1.87l.15-.1c.22-.18 5.48-4.5 3.35-13-1.72-6.87-.87-13.13 2.43-18.15a89.13 89.13 0 0 1 16-3.5c-1.15 3-3.37 9.45-3.37 14.89 0 4.8 1.39 8.7 3.82 10.69a6.17 6.17 0 0 0 4 1.43 7.14 7.14 0 0 0 1.4-.14c6.09-1.22 8-7.1 10.09-13.32 1.61-4.88 3.3-9.9 7-13.69a105 105 0 0 1 17.89 3.54c-2 1.91-6.51 6.59-8.12 12.21-1.91 6.68 1.16 11.73 8.65 14.22a4.73 4.73 0 0 0 1.5.27c2.65 0 3.92-2.86 5.36-6.09 1.77-4 4.2-9.44 10.16-13.41a1 1 0 0 0 .25-.25q2.3 1.15 4.55 2.41c2.55 1.44 5.06 3.06 7.54 4.79-2.11 1.5-11 7.94-12 11-1.11 3.32-2.09 7.56.12 10.87a3.79 3.79 0 0 0 3.31 1.54h.21c4.06-.14 11.16-4.39 17.77-15.93a1 1 0 0 0 .1-.29c2.67 2.16 5.31 4.36 7.91 6.55l3.12 2.62c-1.49 2-4.86 4.15-8.15 6.19-5.35 3.32-10.88 6.75-11.41 11.31-.26 2.22.74 4.48 3 6.7a8.13 8.13 0 0 0 5.78 2.7 7.37 7.37 0 0 0 1.45-.15c8.75-1.77 16-19.35 16.31-20.1a1 1 0 0 0-1.85-.75c-.07.17-7.14 17.34-14.85 18.9-1.91.39-3.69-.27-5.43-2s-2.57-3.45-2.39-5.06c.42-3.6 5.76-6.91 10.47-9.84 3.54-2.2 6.89-4.29 8.64-6.61 7.07 5.86 13.88 11.11 20.7 14.26-7.56 31.14-34.78 32.4-40.08 32.36zm-1.96 7.95l-40 1c-.83 0-15.31.06-24.29 3.05s-17.92 9.87-18.3 10.16a1 1 0 0 0-.11.13 19.23 19.23 0 0 0-8.85 1.76 1 1 0 0 0-.36-.09c-.66 0-16.18-1-22.23 0s-19.75 8.79-20.33 9.12a1 1 0 0 0-.36 1.38l9 15a1 1 0 0 0 .86.49h.09c.11 0 11.11-1 17.07-2 6.15-1 16-7.88 16.41-8.17a1 1 0 0 0 .43-.82v-13a17.22 17.22 0 0 1 8.53-1.68l5.57 12.06a1 1 0 0 0 .91.58c.5 0 12.22 0 19.27-2s16.83-7.86 17.24-8.1a1 1 0 0 0 .49-.86v-9.3c9.46-1.12 31.46-3.7 33-3.7a1 1 0 0 0 .89-.55c.54-1.07 3.42-2.09 5.3-2.47a1 1 0 0 0 .8-1.09 1 1 0 0 0-1.03-.9zm-93 30.47c-2 1.32-10.14 6.7-15.16 7.54s-13.89 1.71-16.3 1.93l-8.15-13.58c3.16-1.75 13.87-7.56 18.78-8.38s17.34-.23 20.84 0zm52-13c-2.07 1.21-10.35 5.92-16.27 7.61s-15.53 1.92-18.09 2l-5.39-11.68c2.18-1.61 9.68-6.9 17.07-9.37s19.2-2.87 22.68-2.94zm34.44-14.4c-4.2.31-27 3-32.44 3.66v-3.71l33.38-.83a4.78 4.78 0 0 0-.91.84z"/><path class="cls-3" d="M978.69 132.41a1 1 0 0 1-1-.87l-3-22a1 1 0 1 1 2-.27l3 22a1 1 0 0 1-.86 1.13z"/><path class="cls-2" d="M1299.68 334.64a1 1 0 0 1-1-.74c-1.07-4-2.18-7.82-3.3-11.5a1 1 0 0 1 1.91-.58c1.12 3.7 2.24 7.59 3.31 11.56a1 1 0 0 1-.7 1.23 1 1 0 0 1-.22.03zm-7-23a1 1 0 0 1-.95-.68c-1.32-3.89-2.7-7.67-4.08-11.23a1 1 0 0 1 1.86-.72c1.4 3.59 2.78 7.4 4.11 11.31a1 1 0 0 1-.62 1.27 1 1 0 0 1-.29.09zm-8.68-22.29a1 1 0 0 1-.91-.59 178.01 178.01 0 0 0-5.25-10.7 1 1 0 1 1 1.76-.94c1.81 3.39 3.6 7 5.31 10.82a1 1 0 0 1-.91 1.41zm-11.37-21.09a1 1 0 0 1-.84-.46c-2.19-3.38-4.47-6.53-7-9.65a1 1 0 1 1 1.56-1.25c2.52 3.17 4.84 6.37 7.07 9.8a1 1 0 0 1-.84 1.54zM1257 249.15a37.53 37.53 0 0 0-9.32-7 1 1 0 0 1 1-1.75 39.45 39.45 0 0 1 9.76 7.3l-.68.74zm-19.72-11.88a1 1 0 0 1-.36-.07c-3.42-1.33-7.22-2.63-11.29-3.85a1 1 0 1 1 .57-1.92c4.13 1.24 8 2.55 11.44 3.9a1 1 0 0 1-.36 1.93zm-70-4.85h-.1a31.51 31.51 0 0 1-11.68-3.87 1 1 0 0 1 .93-1.77 29.67 29.67 0 0 0 10.94 3.65 1 1 0 0 1-.1 2zm11.82-1.56a1 1 0 0 1-.28-2c1.18-.35 2.36-.72 3.53-1.09a71.67 71.67 0 0 1 8.09-2.22 1 1 0 1 1 .38 2 70.57 70.57 0 0 0-7.87 2.17c-1.19.38-2.37.75-3.57 1.1a1 1 0 0 1-.26.04zm35.19-.58h-.23c-3.83-.92-7.77-1.76-11.71-2.51a1 1 0 0 1 .37-2c4 .75 7.93 1.61 11.8 2.53a1 1 0 0 1-.23 2zm-69.29-6.19h-.23l-2.14-.5c-2.92-.67-6.24-1.44-9.57-2.42a1 1 0 0 1 .57-1.92c3.27 1 6.56 1.73 9.45 2.39l2.15.5a1 1 0 0 1-.23 2zm-22.67-7.59a1 1 0 0 1-.55-.17 17.66 17.66 0 0 1-2.76-2.21 25.38 25.38 0 0 1-5-7.47 1 1 0 1 1 1.82-.83 23.4 23.4 0 0 0 4.56 6.89 15.63 15.63 0 0 0 2.44 2 1 1 0 0 1-.55 1.83zm-10.85-20.72a1 1 0 0 1-1-.81 95.33 95.33 0 0 1-1.5-12 1 1 0 1 1 2-.13 93.4 93.4 0 0 0 1.47 11.77 1 1 0 0 1-.79 1.17zm.47-23.11a1 1 0 0 1-.79-1.61 76.85 76.85 0 0 0 6.57-9.84 1 1 0 0 1 1.75 1 78.84 78.84 0 0 1-6.74 10.1 1 1 0 0 1-.83.35zm11.36-21a1 1 0 0 1-1-1.29 40.55 40.55 0 0 0 1.74-11.53 1 1 0 0 1 2 0 42.54 42.54 0 0 1-1.82 12.1 1 1 0 0 1-.97.74zm-.14-23.61a1 1 0 0 1-.95-.68 42.86 42.86 0 0 0-5.31-10.42 1 1 0 0 1 1.66-1.11 44.71 44.71 0 0 1 5.55 10.9 1 1 0 0 1-.95 1.32zM933.73 389.7a1 1 0 0 1-1-1v-7.6a1 1 0 0 1 1-1 1 1 0 0 1 1 1v7.61a1 1 0 0 1-1 1zm-.17-19.6a1 1 0 0 1-1-1v-12.02a1 1 0 0 1 1-1 1 1 0 0 1 1 1v11.98a1 1 0 0 1-1 1zm.38-24h-.05a1 1 0 0 1-.95-1.05c.22-4.27.53-8.2 1-12a1 1 0 1 1 2 .22c-.42 3.78-.72 7.67-.94 11.9a1 1 0 0 1-1.06.93zm2.69-23.83h-.19a1 1 0 0 1-.8-1.17c.76-4 1.69-8 2.77-11.77a1 1 0 1 1 1.92.55c-1.06 3.7-2 7.6-2.73 11.59a1 1 0 0 1-.96.8zm6.8-22.95a1 1 0 0 1-.88-1.47 39.85 39.85 0 0 1 7.5-9.69 1 1 0 0 1 1.4 1.43 37.43 37.43 0 0 0-7.14 9.2 1 1 0 0 1-.87.54zM959.82 282a1 1 0 0 1-.63-1.78l.43-.35c2.46-2 5-4.07 7.4-6.22l1.37-1.12a1 1 0 1 1 1.27 1.54l-1.35 1.1c-2.39 2.15-5 4.24-7.44 6.25l-.43.35a1 1 0 0 1-.62.23zm18.92-14.69a1 1 0 0 1-.45-1.89 20.12 20.12 0 0 1 6.25-2c1.72-.14 3.69-.32 5.73-.56a1 1 0 0 1 .24 2c-2.07.25-4.06.42-5.74.56a18.18 18.18 0 0 0-5.58 1.81 1 1 0 0 1-.44.09zm23.38-4.91a1 1 0 0 1-.32-1.95c4.35-1.48 7.42-3.49 9.39-6.14a1 1 0 0 1 1.6 1.2c-2.22 3-5.61 5.21-10.35 6.83a1 1 0 0 1-.31.07zm11.16-17.63a1 1 0 0 1-.94-.65c-1.07-2.89-2.07-5.84-3-8.7l-.91-2.66a1 1 0 1 1 1.89-.65l.91 2.66c1 2.84 2 5.79 3 8.65a1 1 0 0 1-.94 1.35zm-8.12-22.58a1 1 0 0 1-.92-.61 76.85 76.85 0 0 0-5.3-10.58 1 1 0 1 1 1.71-1 78.76 78.76 0 0 1 5.46 10.84 1 1 0 0 1-.92 1.39zm-12.33-20.48a1 1 0 0 1-.84-.46 56 56 0 0 1-5.38-10.94 1 1 0 0 1 1.88-.68 54 54 0 0 0 5.18 10.55 1 1 0 0 1-.84 1.54zm-8.25-22.35a1 1 0 0 1-1-.84 77.39 77.39 0 0 1-.92-12.11 1 1 0 0 1 2 0 75.4 75.4 0 0 0 .9 11.8 1 1 0 0 1-.83 1.14z"/><path class="cls-3" d="M1187.6 681.33c-12-6.83-22.73-16.92-31.92-30.05a1 1 0 0 0-.48-.67q-2.81-4.07-5.43-8.51a177.83 177.83 0 0 1-19.09-48.44v-.08a1 1 0 0 0-.21-.74q-.49-2.08-1-4.2a218 218 0 0 1-4.13-28.15l.25-.71a1 1 0 0 0-.4-1.15q-.87-11.78-.58-24a1 1 0 0 0 0-.3q.23-9.05 1.11-18.3c.23-2.43.51-4.82.81-7.2a1 1 0 0 0 .07-.57q1.31-10.25 3.41-19.84l.27-.24a1 1 0 0 0 .09-1.41 175.84 175.84 0 0 1 14-39.65 1 1 0 0 0 .27-.54c.82-1.62 1.65-3.22 2.51-4.78 11.65-21.11 27.58-37.22 46.06-46.58 2.43-1.23 4.94-2.36 7.47-3.36a1 1 0 0 0-.28-1.93l-5.65-.49h-.19l-14.35 1.49a1 1 0 0 0-.26.06c-2.59 1-5.16 2.18-7.64 3.43a96.72 96.72 0 0 0-15.61 9.95l-.32.09a1 1 0 0 0-.65.65 109.49 109.49 0 0 0-12.13 11.29l-.2.05a1 1 0 0 0-.72 1 123.14 123.14 0 0 0-8.74 10.87l-.57.18a1 1 0 0 0-.66 1.25 1 1 0 0 0 .09.18 137 137 0 0 0-7.4 11.92c-.21.37-.4.76-.6 1.14a.93.93 0 0 0-.06.11 158.74 158.74 0 0 0-7.76 16.65 1 1 0 0 0-.31.8 201.85 201.85 0 0 0-11.88 47.44 1 1 0 0 0-.09.67c-.35 2.71-.67 5.44-.93 8.21q-.78 8.21-1.05 16.27a1 1 0 0 0 0 .51 231.72 231.72 0 0 0 4.84 56.42q1 4.61 2.18 9.08a1 1 0 0 0 .28 1.05 177 177 0 0 0 18 43.91 131.87 131.87 0 0 0 11.63 16.79v.59a1 1 0 0 0 1 1 1 1 0 0 0 .2 0 95.8 95.8 0 0 0 25.69 21.7 1 1 0 0 0 .49.13h.05l20-1a1 1 0 0 0 .44-1.87zm-60-92.31c.34 1.58.71 3.15 1.08 4.71l-4.6 38.62a182.48 182.48 0 0 1-12.22-33.17l12-34.18a218.23 218.23 0 0 0 3.7 24zm-22.84-55.26l19.52-22.19c-.16 1.41-.32 2.83-.45 4.25q-.88 9.25-1.12 18.32l-17.29 27.3a243 243 0 0 1-.7-27.68zm19.95-25.7l-19.83 22.54q.3-6.74.95-13.58c.26-2.76.58-5.47.93-8.17l20.84-18.24q-1.8 8.48-2.93 17.45zm-6-47l22.67-12.21q-2.7 5.66-5 11.68a1 1 0 0 0-.21.1l-23.23 17.66a179 179 0 0 1 5.69-17.29zm-6.71 20.3a1 1 0 0 0 .29-.15l22.71-17.27a191.56 191.56 0 0 0-6.76 23.4l-21.15 18.51a215.07 215.07 0 0 1 4.91-24.49zm33.42-40.55c-.89 1.61-1.75 3.26-2.59 4.93l-23 12.4q3-7.25 6.62-13.94l22.23-8.89c-1.14 1.8-2.22 3.62-3.26 5.5zM1135.2 430l21.73-6.69q-3.4 4.37-6.5 9.16h-.11l-22.37 8.95a133.81 133.81 0 0 1 7.25-11.42zm38-33.8c2.39-1.21 4.86-2.32 7.35-3.31l14.11-1.47 1.54.13c-1.32.59-2.62 1.21-3.9 1.86-.67.34-1.33.71-2 1.06l-28 8.23a93.13 93.13 0 0 1 10.94-6.5zm-15.59 10l25.75-7.57a102.92 102.92 0 0 0-13.83 10.84h-.14l-22.08 5.95a105.91 105.91 0 0 1 10.34-9.25zm-12.95 12l21.94-5.91q-3.89 3.89-7.48 8.26l-22 6.77q3.64-4.83 7.58-9.14zm-39 146.55L1122.6 538q-.13 11.27.75 22.2l-12.42 35.49c-.5-2-1-4-1.42-6.09a216.57 216.57 0 0 1-3.83-24.88zm24.09 78.33q-2.14-3.64-4.1-7.47v-.05l4.33-36.39a189.13 189.13 0 0 0 8.86 25.73 1 1 0 0 0-.18.57l.89 32.1a132.08 132.08 0 0 1-9.78-14.52zm11.89 17.06l-.86-30.95q3.34 7.22 7.25 13.9 2.77 4.71 5.75 9l4.46 24.08a99.91 99.91 0 0 1-16.59-16.06zm25.69 22.07a83.49 83.49 0 0 1-6.74-4.32l-4.08-22a100.68 100.68 0 0 0 27.22 25.52zm110.19-163.76l-40.24 6.31 30.18-36.76a1 1 0 1 0-1.54-1.27l-31.59 38.42-7.44 1.17a6.33 6.33 0 0 0-1.68-1.4l31.32-46a1 1 0 0 0-1.65-1.12l-30.69 45.08-2.91-13.39 2.43-76.09a1 1 0 0 0-1-1 1 1 0 0 0-1 1l-2.17 68.12-19.85-91.31a1 1 0 0 0-.4-.59 1 1 0 0 0 0-.1 1 1 0 0 0-1.33-.47 57.2 57.2 0 0 0-16.81 12.58 1 1 0 0 0-.16.16c-8.16 8.69-14.41 19.57-20.16 30.33a153.71 153.71 0 0 0-8.72 19.54h-.06a1 1 0 0 0-.27.9 174.7 174.7 0 0 0-6.78 24.14.95.95 0 0 0-.22 1.1c-4.36 21.94-5.09 46-2 71.37 5.74 47.95 22.56 81.36 50 99.33a1 1 0 0 0 2 .17l.07-.26a1 1 0 0 0 .07-.28l29.73-113a6.48 6.48 0 0 0 3-2.56l.55 1.28-6.4 90.46a1 1 0 0 0 .93 1.07h.07a1 1 0 0 0 1-.93l6.12-86.59 18 41.91a1 1 0 0 0 .92.61 1 1 0 0 0 .39-.08 1 1 0 0 0 .53-1.31l-19.49-45.48.57-8.06a1 1 0 0 0-.35-.81c.15-1 .25-2 .31-3.07l1.05.94 22.1 43.32a1 1 0 1 0 1.78-.91l-19.76-38.73 21.2 18.93a1 1 0 0 0 1.33-1.49l-25-22.37-2.73-5.34a1 1 0 0 0-.16-.2q-.16-1.25-.42-2.41a1 1 0 0 0 .46-.3l4.92-6 42.46-6.66a1 1 0 0 0-.31-2zm-51.61 33a1 1 0 0 0-.86.18l-2.17 1.74a3.77 3.77 0 0 1-2.26-1.67 1 1 0 0 0-.6-1.23l-.2-.07a23.51 23.51 0 0 1-2.14-10.49c0-8 2.9-13.5 5.5-13.5s5.5 5.54 5.5 13.5c.01 5.14-1.2 9.27-2.76 11.55zm-79.34-52.52l54.77 25.86 14.34 15v.1a32.39 32.39 0 0 0 .23 3.84l-4.41 3.62-68-24.74a200.59 200.59 0 0 1 3.08-23.67zm.41-2a173.22 173.22 0 0 1 6.21-22.53l44.3 46.38zm68.74 37.79a1 1 0 0 0 .3.45c-.09.61-.16 1.25-.22 1.89l-9.43-9.87 8.2 3.87zm.54 11.33a22.61 22.61 0 0 0 1 3.42l-3.56-1.29zm2.19 6a8.43 8.43 0 0 0 2.11 2.43l-25.88 9.29 17.19-14.11zm4-27.55a4.5 4.5 0 0 0-1.7.74l.24-7.49zm-24.6-113.16l21.39 98.39-.56 17.66v.06a14.5 14.5 0 0 0-1.37 2.7l-1.09-.52-33.41-106.91a55.52 55.52 0 0 1 15.05-11.39zm-35.32 41.73c5.41-10.12 11.26-20.32 18.72-28.64l32.52 104-11.24-5.31-48.53-50.83a151.65 151.65 0 0 1 8.54-19.23zm-19.22 71.65l66.39 24.14-20.61 16.92-42.63 15.3q-1-5.91-1.75-12.15a243.35 243.35 0 0 1-1.39-44.22zm3.49 58.36l37.68-13.53-34.48 28.33q-1.82-7.11-3.19-14.81zm3.73 16.94l39.56-32.47 27.42-9.84-63.45 50.94a1 1 0 0 0 1.25 1.56l66.77-53.6-28.9 109.82c-20.18-13.54-34.5-35.8-42.64-66.43zm78.88-68.84a16.82 16.82 0 0 0-1.28-3l4.27-.67z"/></g></g></g></g></svg>